<?xml version="1.0" encoding="UTF-8" standalone="no"?>
<!-- Created with Inkscape (http://www.inkscape.org/) -->

<svg
   xmlns:dc="http://purl.org/dc/elements/1.1/"
   xmlns:cc="http://creativecommons.org/ns#"
   xmlns:rdf="http://www.w3.org/1999/02/22-rdf-syntax-ns#"
   xmlns:svg="http://www.w3.org/2000/svg"
   xmlns="http://www.w3.org/2000/svg"
   xmlns:sodipodi="http://sodipodi.sourceforge.net/DTD/sodipodi-0.dtd"
   xmlns:inkscape="http://www.inkscape.org/namespaces/inkscape"
   version="1.1"
   height="35pt"
   viewBox="0 0 300.000000 200.000000"
   preserveAspectRatio="xMidYMid meet"
   id="svg3713"
   sodipodi:docname="Logo.svg"
   inkscape:version="0.92.3 (2405546, 2018-03-11)">
  <metadata
     id="metadata3719">
    <rdf:RDF>
      <cc:Work
         rdf:about="">
        <dc:format>image/svg+xml</dc:format>
        <dc:type
           rdf:resource="http://purl.org/dc/dcmitype/StillImage" />
        <dc:title></dc:title>
      </cc:Work>
    </rdf:RDF>
  </metadata>
  <defs
     id="defs3717" />
  <sodipodi:namedview
     pagecolor="#ffffff"
     bordercolor="#666666"
     borderopacity="1"
     objecttolerance="10"
     gridtolerance="10"
     guidetolerance="10"
     inkscape:pageopacity="0"
     inkscape:pageshadow="2"
     inkscape:window-width="1920"
     inkscape:window-height="1017"
     id="namedview3715"
     showgrid="false"
     inkscape:zoom="1.4990664"
     inkscape:cx="381.76829"
     inkscape:cy="73.782094"
     inkscape:window-x="3832"
     inkscape:window-y="0"
     inkscape:window-maximized="1"
     inkscape:current-layer="svg3713" />
  <g
     id="g4940"
     transform="translate(2.001242,2.0012456)">
    <path
       style="fill:#b2b9b7;stroke-width:1.33333337"
       d="M 162.66667,193.53344 C 136.14236,187.12132 119.35133,178.70409 107.74188,166 c -4.33004,-4.73831 -9.891744,-15.88341 -11.069595,-22.18236 -0.760761,-4.06843 0.575455,-13.23521 2.758528,-18.92421 0.747697,-1.94846 -0.303344,-2.22676 -8.409586,-2.22676 -5.095243,0 -12.209436,-0.89351 -15.809319,-1.98557 -3.599883,-1.09206 -7.745241,-1.99576 -9.211908,-2.00821 -1.466667,-0.0125 -4.385251,-0.91896 -6.485743,-2.01444 -2.100492,-1.09548 -4.825105,-1.99178 -6.054697,-1.99178 -4.043109,0 -24.123648,-12.53343 -30.895937,-19.283949 C 4.6285715,77.505331 4.6746844,55.669216 22.685705,37.571769 29.276783,30.949065 49.528056,18.695567 54,18.624335 c 1.466667,-0.02336 3.831344,-0.923395 5.25484,-2.000072 1.423495,-1.076679 4.123495,-1.964091 6,-1.972028 1.876504,-0.0079 6.411827,-0.947963 10.078493,-2.088945 9.34142,-2.9068325 46.184237,-4.1951616 54.857447,-1.918269 3.56174,0.935029 8.57589,2.181522 11.14255,2.769984 24.31983,5.575835 45.68476,20.033491 54.05659,36.580115 3.25048,6.424453 3.56196,8.184331 2.87981,16.270908 -0.42068,4.987017 -1.14926,10.324843 -1.61908,11.861833 -0.80358,2.628942 -0.23588,2.842482 9.58091,3.60378 34.26349,2.657162 65.13845,18.608829 76.20485,39.371539 15.40238,28.89781 -10.31956,60.20838 -58.43641,71.13299 -16.80424,3.8153 -48.17276,4.47878 -61.33333,1.29727 z"
       id="path4988"
       inkscape:connector-curvature="0" />
    <path
       style="fill:#94aab5;stroke-width:1.33333337"
       d="m 166.66667,193.91603 c -34.51965,-7.45612 -56.50204,-20.50604 -65.95054,-39.15175 -3.241607,-6.397 -3.578645,-8.26797 -2.999743,-16.65217 0.358697,-5.19499 1.065158,-10.7034 1.569913,-12.2409 0.86813,-2.64434 0.317588,-2.84463 -10.184281,-3.70517 C 44.372217,118.50079 9.3333333,94.122352 9.3333333,66.666667 c 0,-31.452484 44.8141797,-57.2068867 99.7228767,-57.3100549 36.31918,-0.06824 74.13836,17.3198969 85.21548,39.1795429 3.68226,7.266572 4.74052,18.423585 2.6176,27.596354 l -1.11072,4.799175 9.77739,0.781653 c 13.37311,1.069114 34.12897,6.598802 44.14517,11.760964 4.56438,2.352395 9.88108,5.09315 11.8149,6.090564 6.14454,3.169205 18.65569,16.851335 21.96093,24.016365 12.71773,27.56921 -12.08761,56.85221 -57.47696,67.85221 -19.56323,4.74109 -44.12012,5.76859 -59.33333,2.48259 z"
       id="path4986"
       inkscape:connector-curvature="0" />
    <path
       style="fill:#87c26a;stroke-width:1.33333337"
       d="m 170,194.56704 c -12.20176,-2.05215 -29.9574,-7.8492 -40.91394,-13.35803 C 104.25739,168.7254 92.260936,147.20815 99.23474,127.66667 l 1.78436,-5 h -6.362779 c -7.764302,0 -28.459241,-4.19406 -39.310162,-7.96665 C 37.172887,108.38165 19.403876,94.451727 13.084775,81.569439 8.8837657,73.005148 8.8647548,60.366475 13.040081,51.856221 19.543823,38.600133 37.575859,24.711827 56.714437,18.218156 61.821497,16.485344 73.2,13.702904 82,12.034957 95.404895,9.4941999 100.59511,9.1328571 114,9.8071139 c 36.29017,1.8253701 69.66508,17.7978951 80.06249,38.3162171 4.40271,8.688329 5.51719,19.110516 2.75138,25.730022 -1.18096,2.826438 -2.1472,5.606791 -2.1472,6.178563 0,0.571772 3.75,1.415053 8.33333,1.873959 39.16531,3.921417 68.36817,18.862505 79.73024,40.792455 4.2816,8.26392 4.44472,22.161 0.36104,30.7596 -7.43215,15.64918 -32.11627,32.34676 -55.09128,37.26655 -24.04913,5.1498 -42.82939,6.394 -58,3.84256 z"
       id="path4984"
       inkscape:connector-curvature="0" />
    <path
       style="fill:#84b965;stroke-width:1.33333337"
       d="M 174.66667,195.09075 C 145.72663,190.34948 124.34343,181.28461 111.09435,168.14088 98.473857,155.62075 94.319011,141.44116 99.23474,127.66667 l 1.78436,-5 h -6.362779 c -7.764302,0 -28.459241,-4.19406 -39.310162,-7.96665 C 44.026097,110.76433 29.941728,102.04601 22.505811,94.371632 13.492191,85.068952 10.025802,77.373749 10.025802,66.666667 c 0,-10.77866 3.407986,-18.263854 12.622613,-27.723912 C 40.518873,20.596319 70.355424,10.543159 108,10.184301 c 19.82754,-0.1890122 26.32892,0.839921 44.23657,7.001058 19.60123,6.74381 36.92594,20.205866 42.83212,33.28242 3.28727,7.278156 3.5353,18.16952 0.59664,26.198888 L 193.71339,82 l 8.80997,0.28578 c 18.96535,0.615203 41.36179,7.140716 56.98653,16.603817 8.95822,5.425533 19.06492,15.788323 23.22035,23.808733 4.2816,8.26392 4.44472,22.161 0.36104,30.7596 -5.93136,12.48911 -22.60175,25.71936 -41.75795,33.14071 -17.74497,6.87461 -50.82176,11.08799 -66.66666,8.49211 z m 4.17008,-93.42408 c 1.65849,-2.114745 1.61133,-2.161905 -0.50342,-0.50341 -2.221,1.74183 -2.9273,2.83674 -1.82992,2.83674 0.27687,0 1.32687,-1.05 2.33334,-2.33333 z M 155.73043,34.666667 c -0.17208,-2.482344 0.4994,-3.040891 1.6029,-1.333334 1.0892,1.685418 1.29571,1.61055 1.31292,-0.475985 0.0144,-1.744544 0.66696,-2.227884 2.209,-1.636144 4.07634,1.564232 -0.93284,-3.209183 -6.09938,-5.812329 -7.96652,-4.013902 -36.3392,-13.192679 -43.42254,-14.047521 l -6.66666,-0.804557 8.72494,3.211788 c 4.79871,1.766483 10.79871,4.277923 13.33333,5.580978 6.28068,3.228918 19.00953,11.920638 21.03937,14.366449 1.49048,1.795907 8.07921,2.582188 7.96612,0.950655 z"
       id="path4982"
       inkscape:connector-curvature="0" />
    <path
       style="fill:#6194a3;stroke-width:1.33333337"
       d="M 170.45608,193.94337 C 145.57655,190.06756 123.28838,180.16572 110.5136,167.31307 99.221016,155.95165 94.73204,140.69503 99.044547,128.33333 l 1.976873,-5.66666 h -6.363936 c -7.765309,0 -28.459768,-4.19384 -39.311325,-7.96665 C 37.172887,108.38165 19.403876,94.451727 13.084775,81.569439 8.8837657,73.005148 8.8647548,60.366475 13.040081,51.856221 19.334104,39.027585 37.326273,24.898359 55.346159,18.633312 c 11.60444,-4.034563 31.739704,-7.966645 40.795304,-7.966645 14.051297,0 34.886827,8.950216 46.738647,20.077284 3.6662,3.442016 8.11937,6.920488 9.89592,7.72994 1.77656,0.809452 4.35248,3.317345 5.72429,5.573096 2.07615,3.41395 2.80192,3.809589 4.33027,2.360522 1.00984,-0.957464 2.73608,-1.740842 3.83608,-1.740842 1.1,0 1.8705,-0.688464 1.71225,-1.52992 -0.17049,-0.906451 0.78039,-1.250596 2.33333,-0.844492 1.45024,0.379245 2.62108,0.02036 2.62108,-0.803414 0,-0.818862 0.90463,-1.488841 2.01028,-1.488841 3.33708,0 -4.28438,-7.523897 -12.07554,-11.920957 -7.9891,-4.508764 -35.79684,-14.068642 -48.6014,-16.708421 L 106,9.5839089 113.02326,9.4586212 c 8.05691,-0.1437271 29.52539,4.2237258 40.31007,8.2005028 17.77784,6.555455 35.39468,20.113811 40.75951,31.369516 C 196.73988,54.582271 198.80975,64 197.38329,64 c -0.5089,0 -1.62734,3.041459 -2.48541,6.758796 -2.53671,10.989613 -7.77481,18.258715 -26.35556,36.574534 -20.63272,20.33855 -26.51748,28.83936 -7.57989,10.94953 18.83209,-17.79017 25.29656,-24.543176 29.90129,-31.235935 l 4.0884,-5.942293 8.19061,0.817808 c 38.99242,3.893277 68.24279,18.87942 79.58751,40.77589 4.2816,8.26392 4.44472,22.161 0.36104,30.7596 -7.42863,15.64176 -32.01704,32.28151 -55.09128,37.28202 -24.77687,5.36948 -38.67361,6.1431 -57.54392,3.20342 z"
       id="path4980"
       inkscape:connector-curvature="0" />
    <path
       style="fill:#80b75d;stroke-width:1.33333337"
       d="m 170.45608,193.94337 c -24.87953,-3.87581 -47.1677,-13.77765 -59.94248,-26.6303 -11.257909,-11.32652 -15.780276,-26.62302 -11.498767,-38.8935 l 1.947167,-5.58042 -8.814335,-0.84194 C 54.511653,118.40221 24.55976,103.13775 13.66522,82 1.9715104,59.311683 19.515135,32.460685 54.501132,19.499519 77.380519,11.023456 101.11451,9.3868449 115.92818,15.263731 c 11.46999,4.550378 25.88089,13.225398 29.39833,17.697093 1.56602,1.990883 4.5964,4.355217 6.73414,5.254076 2.13776,0.898857 5.02242,3.501599 6.41034,5.783869 2.10077,3.454431 2.8311,3.857951 4.3596,2.40874 1.00984,-0.957464 2.73608,-1.740842 3.83608,-1.740842 1.1,0 1.8705,-0.688464 1.71225,-1.52992 -0.17049,-0.906451 0.78039,-1.250596 2.33333,-0.844492 1.45024,0.379245 2.62108,0.02036 2.62108,-0.803414 0,-0.818862 0.90463,-1.488841 2.01028,-1.488841 3.33708,0 -4.28438,-7.523897 -12.07554,-11.920957 -7.9891,-4.508764 -35.79684,-14.068642 -48.6014,-16.708421 L 106,9.5839089 113.02326,9.4586212 c 8.05691,-0.1437271 29.52539,4.2237258 40.31007,8.2005028 17.77784,6.555455 35.39468,20.113811 40.75951,31.369516 C 196.73988,54.582271 198.80975,64 197.38329,64 c -0.5089,0 -1.62734,3.041459 -2.48541,6.758796 -2.53807,10.995484 -7.77844,18.263208 -26.372,36.574534 -10.89405,10.7287 -18.72179,19.61956 -20.54324,23.33334 -3.19989,6.52432 -2.17304,6.02244 2.83057,-1.38346 1.75274,-2.59423 9.97988,-10.92706 18.28256,-18.51739 8.30268,-7.59033 17.585,-17.09756 20.62739,-21.127171 l 5.53161,-7.326565 10.70595,0.757656 c 31.76491,2.247991 61.87025,16.633133 73.83664,35.28114 6.39841,9.97107 7.81724,18.27601 4.93891,28.90944 -1.94827,7.19744 -3.70376,10.17284 -10.06663,17.06203 -8.31473,9.00248 -21.2388,17.41342 -34.00297,22.12904 -9.98139,3.68753 -31.71474,8.21456 -35.13834,7.31926 -1.40838,-0.36829 -2.96384,-0.0173 -3.45654,0.77986 -1.20251,1.94569 -17.20076,1.63846 -31.61571,-0.60714 z m -28.21193,-47.5267 c -0.42563,-1.06364 -0.74158,-0.74771 -0.80555,0.80556 -0.0579,1.40554 0.25723,2.19305 0.70029,1.75 0.44306,-0.44307 0.49042,-1.59307 0.1052,-2.55556 z M 145.29249,138 c 0,-0.73333 -0.58161,-0.43333 -1.29249,0.66667 -0.71088,1.1 -1.29249,2.6 -1.29249,3.33333 0,0.73333 0.58161,0.43333 1.29249,-0.66667 0.71088,-1.1 1.29249,-2.6 1.29249,-3.33333 z"
       id="path4978"
       inkscape:connector-curvature="0" />
    <path
       style="fill:#7ab356;stroke-width:1.33333337"
       d="m 174.02687,194.51375 c -11.90904,-1.73424 -28.03264,-6.17031 -38.2866,-10.53376 -28.78236,-12.248 -43.920578,-35.54555 -36.535139,-56.2272 l 1.754749,-4.91387 -8.813273,-0.84183 C 62.688288,119.18327 37.914728,109.35453 23.056633,94.586096 -6.9299643,64.78046 17.502416,26.013381 73.857183,13.980405 c 16.079564,-3.433338 30.756397,-2.998065 41.850327,1.241163 14.2638,5.450501 26.98744,13.875585 31.80982,21.0632 2.3012,3.429864 4.59224,5.827883 5.09119,5.328928 0.49896,-0.498953 2.05281,0.583848 3.45303,2.406224 2.9331,3.817461 3.47786,14.783285 1.15074,23.164517 -1.135,4.087814 -1.06292,5.422192 0.34078,6.308456 1.11277,0.702583 2.32257,0.40087 3.22666,-0.804706 1.1451,-1.526956 1.83483,-1.59121 3.31111,-0.308456 1.0256,0.891148 1.41293,1.058484 0.86075,0.371856 -0.55327,-0.687976 1.42117,-2.360186 4.39821,-3.724968 2.9712,-1.362107 5.08973,-2.982107 4.70785,-3.6 -0.38188,-0.617895 0.53322,-1.444455 2.03355,-1.8368 2.37081,-0.619983 2.50503,-0.421674 1.02535,1.51508 -0.93639,1.225638 -0.182,0.878434 1.6764,-0.771566 1.85841,-1.65 4.42566,-3 5.70501,-3 1.27935,0 2.03109,-0.477313 1.67053,-1.060696 -0.36054,-0.583382 0.9459,-1.033382 2.90322,-1 4.47213,0.07627 5.10554,2.805472 2.94025,12.668802 -2.3634,10.765782 -5.19501,14.709246 -25.41319,35.391891 -19.43786,19.88441 -23.24465,25.50201 -24.41676,36.0313 -0.40625,3.64945 -0.42974,5.43537 -0.0523,3.9687 3.12657,-12.1461 9.07328,-20.21021 26.96597,-36.56763 8.30268,-7.59027 17.585,-17.09744 20.62739,-21.127051 l 5.53161,-7.326565 10.70595,0.757656 c 31.7649,2.247991 61.87025,16.633133 73.83664,35.28114 6.39841,9.97107 7.81724,18.27601 4.9389,28.90944 -1.94826,7.19744 -3.70376,10.17284 -10.06662,17.06203 -8.31474,9.00248 -21.2388,17.41342 -34.00298,22.12904 -9.98138,3.68753 -31.71473,8.21456 -35.13833,7.31926 -1.40839,-0.36829 -2.96384,-0.0173 -3.45655,0.77986 -1.04654,1.69336 -16.30149,1.67336 -28.04492,-0.0368 z m 16.6398,-147.479558 c -1.1,-0.415404 -4.99674,-3.729055 -8.65942,-7.363667 C 171.15003,28.896477 146.29455,18.206851 116,11.282701 l -7.33333,-1.676113 5.68992,-0.1366273 c 6.86617,-0.1648714 28.84382,4.4527193 38.97674,8.1891633 11.0838,4.087075 24.59727,12.386853 31.39558,19.282712 5.05429,5.126821 9.78782,11.359789 8.318,10.952901 -0.20914,-0.05789 -1.28024,-0.44514 -2.38024,-0.860545 z"
       id="path4976"
       inkscape:connector-curvature="0" />
    <path
       style="fill:#76ac53;stroke-width:1.33333337"
       d="m 174.02687,194.51375 c -11.90904,-1.73424 -28.03264,-6.17031 -38.2866,-10.53376 -28.78236,-12.248 -43.920578,-35.54555 -36.535139,-56.2272 l 1.754749,-4.91387 -8.813273,-0.84183 C 62.688288,119.18327 37.914728,109.35453 23.056633,94.586096 -6.9299643,64.78046 17.502416,26.013381 73.857183,13.980405 c 16.079564,-3.433338 30.756397,-2.998065 41.850327,1.241163 14.46316,5.526679 26.97917,13.863121 31.95916,21.286777 2.38333,3.552831 4.33333,6.01097 4.33333,5.46253 0,-0.54844 1.23621,0.57442 2.74713,2.495244 3.98416,5.065037 4.63072,11.63133 1.95178,19.821721 -3.34956,10.240711 -8.81562,17.638977 -26.08474,35.305553 -8.46221,8.656967 -15.36221,16.439937 -15.33334,17.295497 0.081,2.40032 2.0525,3.8304 2.0525,1.48884 0,-1.90097 4.4383,-4.26315 7.14983,-3.80532 0.6324,0.10677 1.96332,-0.87833 2.95759,-2.18914 0.99428,-1.3108 1.82686,-1.94884 1.85018,-1.41787 0.0233,0.53098 3.06881,-0.81902 6.76775,-3 3.69893,-2.18097 7.61085,-3.9654 8.69316,-3.9654 1.08229,0 4.20589,-1.41235 6.94132,-3.13855 2.73543,-1.726195 6.44552,-3.605354 8.24465,-4.175905 1.79914,-0.570549 4.09751,-1.863718 5.1075,-2.873709 1.00998,-1.009991 2.38797,-1.495421 3.06218,-1.078735 0.67422,0.416686 1.22584,0.1222 1.22584,-0.654412 0,-0.776612 0.85,-1.412022 1.8889,-1.412022 1.03888,0 2.08888,-0.582648 2.33333,-1.294775 0.24444,-0.712127 1.91276,-1.51708 3.70737,-1.788788 1.79462,-0.271707 3.49462,-1.189059 3.77778,-2.038559 C 181.32388,84.695045 182.12096,84 182.81201,84 c 3.0838,0 -3.94442,8.894977 -19.22605,24.33263 -10.24168,10.34625 -17.69547,19.09546 -19.57384,22.97567 -3.48037,7.18949 -5.19493,18.02503 -2.85219,18.02503 0.82871,0 1.50674,-1.12672 1.50674,-2.50384 0,-8.22642 8.20462,-19.42513 26.4291,-36.07379 8.30268,-7.58477 17.585,-17.08744 20.62739,-21.117051 l 5.53161,-7.326565 10.70595,0.757656 c 31.76491,2.247991 61.87025,16.633133 73.83664,35.28114 6.39841,9.97107 7.81724,18.27601 4.93891,28.90944 -1.94827,7.19744 -3.70376,10.17284 -10.06663,17.06203 -8.31473,9.00248 -21.2388,17.41342 -34.00297,22.12904 -9.98139,3.68753 -31.71474,8.21456 -35.13834,7.31926 -1.40838,-0.36829 -2.96384,-0.0173 -3.45654,0.77986 -1.04655,1.69336 -16.3015,1.67336 -28.04492,-0.0368 z M 184,39.209401 C 173.24169,30.374551 152.78468,20.919343 132.66667,15.483195 123.13333,12.907164 113.83333,10.551324 112,10.247994 c -1.99885,-0.3307141 -1.05539,-0.6242017 2.35659,-0.7330845 6.80042,-0.217014 28.72617,4.3643835 38.97674,8.1442145 14.3134,5.277967 27.44304,14.162204 36.53999,24.724953 3.71797,4.317066 2.34724,3.57615 -5.87332,-3.174676 z"
       id="path4974"
       inkscape:connector-curvature="0" />
    <path
       style="fill:#73a94a;stroke-width:1.33333337"
       d="m 181.33333,195.29881 c -1.1,-0.21552 -6.5,-1.11553 -12,-2.00004 C 145.2046,189.41843 123.75968,179.97301 111.70152,167.91485 99.473384,155.68672 94.695773,140.81163 99.016347,128.41957 l 1.945653,-5.58042 -8.814335,-0.84194 C 54.511653,118.40221 24.55976,103.13775 13.66522,82 1.9715104,59.311683 19.515135,32.460685 54.501132,19.499519 77.380519,11.023456 101.11451,9.3868449 115.92818,15.263731 c 19.28375,7.650258 33.1729,18.700912 35.58534,28.31284 0.42401,1.689417 1.27767,2.758496 1.89699,2.37573 0.61933,-0.382765 1.8374,1.678322 2.70682,4.580192 1.93426,6.455964 0.10307,15.138335 -5.09022,24.134174 -1.90507,3.3 -11.25536,13.8 -20.77842,23.333333 -19.19168,19.21239 -22.86327,24.01708 -24.70814,32.33333 -1.0959,4.94004 -0.966,5.66667 1.01301,5.66667 1.24855,0 3.43477,-0.88092 4.85827,-1.9576 1.42349,-1.07667 3.57398,-1.97667 4.77885,-2 1.20488,-0.0233 2.58715,-1.07559 3.07173,-2.33837 0.69192,-1.80312 1.11521,-1.91707 1.97193,-0.53087 0.85371,1.38133 1.49037,1.19738 2.92827,-0.84609 1.74142,-2.47479 6.16552,-4.66615 8.03074,-3.97779 0.47301,0.17456 2.05586,-0.76485 3.51746,-2.08757 1.4616,-1.32273 3.9246,-2.50041 5.47332,-2.61708 1.54874,-0.11666 2.81587,-1.01984 2.81587,-2.00706 0,-0.98722 0.62628,-1.40788 1.39173,-0.93481 0.76547,0.47308 2.27996,0.12299 3.36556,-0.77797 2.63023,-2.1829 3.88898,-0.76153 1.46883,1.65861 -4.58545,4.58546 -10.77067,19.08071 -11.30725,26.49893 -0.64114,8.86368 1.76632,12.06671 3.223,4.28806 2.32932,-12.43864 7.89106,-20.20017 26.9539,-37.61469 8.30268,-7.58477 17.585,-17.08744 20.62739,-21.117051 l 5.53161,-7.326565 10.70595,0.757656 c 31.76491,2.247991 61.87025,16.633133 73.83664,35.28114 6.39841,9.97107 7.81724,18.27601 4.93891,28.90944 -1.94827,7.19744 -3.70376,10.17284 -10.06663,17.06203 -8.31473,9.00248 -21.2388,17.41342 -34.00297,22.12904 -9.98139,3.68753 -31.71474,8.21456 -35.13834,7.31926 -1.40838,-0.36829 -2.96384,-0.0173 -3.45654,0.77986 -0.79854,1.29206 -15.2936,1.81509 -20.73846,0.7483 z m -37.17057,-33.53214 c -1.57179,-2.70295 -1.95135,-1.8378 -0.66471,1.51512 0.45726,1.1916 1.11226,1.88568 1.45555,1.54238 0.34329,-0.34329 -0.012,-1.71917 -0.79084,-3.0575 z M 179.3112,33.297521 c -1.21812,-1.970969 -20.02381,-11.165628 -28.64453,-14.00516 -4.03334,-1.328518 -13.63334,-4.05834 -21.33334,-6.066269 -16.29038,-4.2480456 -14.14076,-5.0451869 3.24236,-1.202356 14.18058,3.134855 23.63198,6.543088 35.6486,12.85512 7.67564,4.031816 15.16052,9.787811 12.72771,9.787811 -0.43704,0 -1.1754,-0.616115 -1.6408,-1.369146 z"
       id="path4972"
       inkscape:connector-curvature="0" />
    <path
       style="fill:#3181aa;stroke-width:1.33333337"
       d="m 173.83372,193.32713 c -30.65511,-6.92749 -55.15301,-18.48274 -63.07376,-29.75084 -1.7311,-2.46266 -1.68303,-2.62665 0.52192,-1.78053 2.055,0.78857 2.16938,0.61956 0.74345,-1.09857 -1.17039,-1.41023 -1.228,-2.08144 -0.18859,-2.19719 2.78361,-0.31 3.48422,-0.56937 11.19118,-4.14324 4.23202,-1.96247 8.06494,-3.54432 8.51759,-3.51523 0.45266,0.0291 1.26987,-0.67013 1.81604,-1.55384 0.62685,-1.01429 1.58157,0.17662 2.58918,3.22968 0.8779,2.66004 2.70748,5.43119 4.06575,6.15812 1.35828,0.72692 2.865,2.56754 3.34829,4.09024 0.4833,1.52271 1.1318,2.51547 1.44114,2.20614 0.30933,-0.30934 -0.38532,-2.83071 -1.54368,-5.60306 -1.43844,-3.44266 -1.81894,-6.74034 -1.20027,-10.40225 2.14257,-12.68176 7.72381,-20.57055 27.03381,-38.21086 8.30268,-7.58477 17.585,-17.08744 20.62739,-21.117051 l 5.53161,-7.326565 10.70595,0.757656 c 31.76491,2.247991 61.87025,16.633133 73.83664,35.28114 6.39841,9.97107 7.81724,18.27601 4.93891,28.90944 -1.94827,7.19744 -3.70376,10.17284 -10.06663,17.06203 -8.31473,9.00248 -21.2388,17.41342 -34.00297,22.12904 -9.98139,3.68753 -31.71474,8.21456 -35.13834,7.31926 -1.40838,-0.36829 -2.96384,-0.0173 -3.45654,0.77986 -1.34794,2.18101 -15.97799,1.54718 -28.23807,-1.22338 z m -72.3968,-39.11316 c -3.914709,-8.0867 -4.907153,-18.6625 -2.420573,-25.7944 l 1.945653,-5.58042 -8.814335,-0.84194 C 54.511653,118.40221 24.55976,103.13775 13.66522,82 1.9715104,59.311683 19.515135,32.460685 54.501132,19.499519 77.380519,11.023456 101.11451,9.3868449 115.92818,15.263731 c 18.88434,7.491801 32.4569,18.113829 35.53415,27.809378 0.48922,1.541386 1.71032,3.623359 2.71358,4.62661 1.0784,1.078397 1.82409,4.676022 1.82409,8.800393 0,11.873655 -4.59103,18.904049 -27.62839,42.308316 -16.61359,16.878182 -20.97545,22.106502 -23.09358,27.680972 -3.11948,8.2098 -3.33215,16.46573 -0.62202,24.14707 1.2014,3.40514 1.54222,6.43736 0.86046,7.65558 -0.8673,1.54979 -1.81259,0.60484 -4.07955,-4.07808 z M 171.33333,28.536503 C 160.52371,22.474252 151.73481,19.219669 132,13.971137 c -18.40965,-4.8960998 -18.06325,-6.0678531 0.57569,-1.947401 17.81306,3.937876 36.64676,11.701452 44.7617,18.451543 4.43425,3.688462 3.48106,3.380669 -6.00406,-1.938776 z"
       id="path4970"
       inkscape:connector-curvature="0" />
    <path
       style="fill:#6da343;stroke-width:1.33333337"
       d="m 173.83372,193.32713 c -30.65511,-6.92749 -55.15301,-18.48274 -63.07376,-29.75084 -1.7311,-2.46266 -1.68303,-2.62665 0.52192,-1.78053 2.055,0.78857 2.16938,0.61956 0.74345,-1.09857 -1.17039,-1.41023 -1.228,-2.08144 -0.18859,-2.19719 2.78361,-0.31 3.48422,-0.56937 11.19118,-4.14324 4.23202,-1.96247 8.06494,-3.54432 8.51759,-3.51523 0.45266,0.0291 1.26124,-0.65617 1.79686,-1.52281 0.61156,-0.98953 1.5315,0.024 2.47286,2.72437 0.82446,2.36506 2.85332,5.61155 4.50856,7.21443 1.65525,1.60289 3.76808,4.07567 4.69517,5.49508 0.92709,1.4194 0.77709,0.66053 -0.33333,-1.68639 -3.00678,-6.3549 -2.50266,-18.59306 1.04129,-25.2787 1.70375,-3.21412 9.94716,-11.95305 19.60641,-20.78497 9.16667,-8.38152 18.76667,-17.8524 21.33334,-21.046405 9.98444,-12.424814 11.03728,-13.044804 21.03421,-12.386491 36.30925,2.391017 69.86652,22.316426 76.94236,45.686296 2.1188,6.99794 2.23071,9.04735 0.83465,15.28555 -5.40209,24.1391 -37.70049,45.31023 -73.85428,48.41039 -4.97369,0.42649 -9.35909,1.28679 -9.74536,1.91177 -1.17473,1.90075 -16.56564,1.05751 -28.04453,-1.53652 z m -72.3968,-39.11316 c -3.914709,-8.0867 -4.907153,-18.6625 -2.420573,-25.7944 l 1.945653,-5.58042 -8.814335,-0.79846 C 87.299783,121.60153 81.233333,120.71302 78.666667,120.06621 76.1,119.41941 71.334711,118.46769 68.077136,117.95129 47.401471,114.6737 21.324984,97.367732 14.130619,82.149048 9.3065339,71.944363 8.6906429,66.587545 11.364198,58.087619 18.139783,36.546272 63.578397,12 96.678888,12 c 20.093292,0 48.252522,15.369852 54.030152,29.490695 1.01476,2.480118 2.62035,5.302162 3.56799,6.27121 0.96438,0.986172 1.72297,4.833435 1.72297,8.738207 0,11.873655 -4.59103,18.904049 -27.62839,42.308316 -16.61359,16.878182 -20.97545,22.106502 -23.09358,27.680972 -3.11948,8.2098 -3.33215,16.46573 -0.62202,24.14707 1.2014,3.40514 1.54222,6.43736 0.86046,7.65558 -0.8673,1.54979 -1.81259,0.60484 -4.07955,-4.07808 z M 171.33333,28.536503 C 160.52371,22.474252 151.73481,19.219669 132,13.971137 c -18.40965,-4.8960998 -18.06325,-6.0678531 0.57569,-1.947401 17.81306,3.937876 36.64676,11.701452 44.7617,18.451543 4.43425,3.688462 3.48106,3.380669 -6.00406,-1.938776 z"
       id="path4968"
       inkscape:connector-curvature="0" />
    <path
       style="fill:#6ba03e;stroke-width:1.33333337"
       d="m 181.27004,194.06287 c -12.97773,-2.66839 -34.68147,-9.81655 -44.20971,-14.56052 -6.322,-3.14764 -8.50489,-4.96462 -8.84432,-7.36174 -0.33994,-2.40062 0.0487,-2.99101 1.58156,-2.40278 1.11773,0.4289 3.51517,-0.38664 5.32764,-1.81234 3.61103,-2.84044 10.20812,-3.51036 10.20812,-1.0366 0,0.85555 0.34424,1.21131 0.76499,0.79058 0.42073,-0.42075 -0.17927,-2.59095 -1.33333,-4.82268 -3.10875,-6.01164 -2.63808,-18.27788 0.96193,-25.06928 1.70375,-3.21412 9.94716,-11.95305 19.60641,-20.78497 9.16667,-8.38152 18.76667,-17.8524 21.33334,-21.046405 9.98444,-12.424814 11.03728,-13.044804 21.03421,-12.386491 36.30925,2.391017 69.86652,22.316426 76.94236,45.686296 2.1188,6.99794 2.23071,9.04735 0.83465,15.28555 -5.47994,24.487 -34.82537,43.56839 -75.20441,48.90046 -18.47351,2.43942 -20.00013,2.4721 -29.00344,0.62092 z M 99.384988,149.09133 C 96.910595,140.75915 96.856404,134.33 99.205131,127.75279 l 1.754749,-4.91387 -8.813273,-0.79834 c -4.8473,-0.4391 -10.913274,-1.32756 -13.47994,-1.97437 C 76.1,119.41941 71.334711,118.46769 68.077136,117.95129 47.401471,114.6737 21.324984,97.367732 14.130619,82.149048 9.3065339,71.944363 8.6906429,66.587545 11.364198,58.087619 18.139783,36.546272 63.578397,12 96.678888,12 c 20.093292,0 48.252522,15.369852 54.030152,29.490695 1.01476,2.480118 2.62035,5.302162 3.56799,6.27121 0.96438,0.986172 1.72297,4.833435 1.72297,8.738207 0,12.034464 -4.55467,18.922815 -27.63624,41.796313 -24.66456,24.442225 -26.31505,27.284625 -26.34401,45.368645 -0.0108,6.78245 -0.14651,12.33245 -0.30143,12.33333 -0.15492,8.8e-4 -1.20492,-3.10731 -2.333332,-6.90707 z M 171.33333,28.536503 C 160.52371,22.474252 151.73481,19.219669 132,13.971137 c -18.40965,-4.8960998 -18.06325,-6.0678531 0.57569,-1.947401 17.81306,3.937876 36.64676,11.701452 44.7617,18.451543 4.43425,3.688462 3.48106,3.380669 -6.00406,-1.938776 z"
       id="path4966"
       inkscape:connector-curvature="0" />
    <path
       style="fill:#67964b;stroke-width:1.33333337"
       d="m 176,192.07793 c -15.46812,-4.33396 -25.41601,-8.76145 -27.37248,-12.18264 -4.01608,-7.02272 -4.72708,-9.50209 -3.23908,-11.29502 1.05657,-1.27308 0.88481,-2.8268 -0.638,-5.77162 -3.09397,-5.98306 -2.615,-18.26584 0.97648,-25.04114 1.70375,-3.21412 9.94716,-11.95305 19.60641,-20.78497 9.16667,-8.38152 18.76667,-17.8524 21.33334,-21.046405 9.98444,-12.424814 11.03728,-13.044804 21.03421,-12.386491 36.30925,2.391017 69.86652,22.316426 76.94236,45.686296 2.1188,6.99794 2.23071,9.04735 0.83465,15.28555 -5.53693,24.74162 -35.75668,44.17712 -75.82893,48.76856 -16.18305,1.85424 -23.60332,1.58254 -33.64896,-1.23212 z M 99.566792,149.63239 c -2.207804,-3.41435 -2.522855,-15.55564 -0.550445,-21.21282 l 1.945653,-5.58042 -8.814335,-0.79846 C 87.299783,121.60153 81.233333,120.71302 78.666667,120.06621 76.1,119.41941 71.334711,118.46769 68.077136,117.95129 47.401471,114.6737 21.324984,97.367732 14.130619,82.149048 9.3065339,71.944363 8.6906429,66.587545 11.364198,58.087619 18.139783,36.546272 63.578397,12 96.678888,12 c 20.093292,0 48.252522,15.369852 54.030152,29.490695 1.01476,2.480118 2.62035,5.302162 3.56799,6.27121 0.96438,0.986172 1.72297,4.833435 1.72297,8.738207 0,12.034464 -4.55467,18.922815 -27.63624,41.796313 -23.06809,22.860135 -25.56725,26.855715 -26.87833,42.972245 -0.49121,6.03825 -1.25877,9.3842 -1.918638,8.36372 z M 171.33333,28.536503 C 160.52371,22.474252 151.73481,19.219669 132,13.971137 c -18.40965,-4.8960998 -18.06325,-6.0678531 0.57569,-1.947401 17.81306,3.937876 36.64676,11.701452 44.7617,18.451543 4.43425,3.688462 3.48106,3.380669 -6.00406,-1.938776 z"
       id="path4964"
       inkscape:connector-curvature="0" />
    <path
       style="fill:#257ba7;stroke-width:1.33333337"
       d="m 176,192.08476 c -21.92052,-6.15909 -26.225,-8.76408 -30.61895,-18.52999 -1.51928,-3.37669 -0.67648,-6.10074 1.47595,-4.77046 0.73668,0.45528 0.0952,-1.61103 -1.42545,-4.5918 -3.78474,-7.41868 -3.65572,-18.95128 0.29537,-26.405 1.70375,-3.21412 9.94716,-11.95305 19.60641,-20.78497 9.16667,-8.38152 18.76667,-17.8524 21.33334,-21.046405 9.98444,-12.424814 11.03728,-13.044804 21.03421,-12.386491 36.30925,2.391017 69.86652,22.316426 76.94236,45.686296 2.1188,6.99794 2.23071,9.04735 0.83465,15.28555 -4.52962,20.24052 -25.74532,37.20107 -56.81122,45.41684 -17.23127,4.55702 -40.65074,5.50259 -52.66667,2.12643 z M 97.333333,138.83431 c 0,-2.84114 0.858118,-7.59787 1.906928,-10.57052 l 1.906929,-5.40481 -8.906929,-0.80837 C 87.341451,121.606 81.233333,120.71302 78.666667,120.06621 76.1,119.41941 71.334711,118.46769 68.077136,117.95129 47.401471,114.6737 21.324984,97.367732 14.130619,82.149048 9.3065339,71.944363 8.6906429,66.587545 11.364198,58.087619 16.559232,41.571255 43.954608,22.921541 74.345787,15.212187 c 17.112734,-4.341002 29.171793,-4.274975 41.162133,0.225376 24.96807,9.371293 36.16363,20.664174 38.57844,38.91379 1.57601,11.910478 -3.36897,19.78856 -27.84401,44.359595 C 108.32411,116.69947 105.3365,120.3189 102.85027,127.05002 101.28262,131.29419 100,136.84419 100,139.38335 100,141.92251 99.4,144 98.666667,144 c -0.733334,0 -1.333334,-2.32456 -1.333334,-5.16569 z"
       id="path4962"
       inkscape:connector-curvature="0" />
    <path
       style="fill:#679a39;stroke-width:1.33333337"
       d="m 176,192.08235 c -21.90927,-6.14984 -26.22477,-8.76116 -30.61895,-18.52758 -1.51928,-3.37669 -0.67648,-6.10074 1.47595,-4.77046 0.73668,0.45528 0.0952,-1.61103 -1.42545,-4.5918 -1.61699,-3.16955 -2.76488,-7.97791 -2.76488,-11.58167 0,-8.01161 2.9438,-11.70016 33.7413,-42.27751 l 23.83707,-23.666663 h 9.43493 c 22.45434,0 39.31674,5.345908 56.37799,17.873583 14.6814,10.78022 22.62132,27.34097 19.36175,40.38395 -4.2341,16.9424 -20.71299,32.2506 -44.08638,40.95436 C 220.70285,193.56093 191.23587,196.359 176,192.08235 Z M 97.333333,138.83431 c 0,-2.84114 0.848628,-7.57097 1.885839,-10.51074 l 1.885838,-5.34504 -4.885838,-0.80792 c -2.687211,-0.44436 -6.827228,-0.81453 -9.200037,-0.8226 C 77.188812,121.31457 51.865293,113.64265 40.325243,107.2018 29.133076,100.95512 16.902824,88.917647 13.131895,80.437093 11.434015,76.61868 10.274542,71.287927 10.281746,67.333333 10.295299,59.892809 12.363718,56.815929 27.118752,42.287419 41.92744,27.706079 69.184556,17.252012 98.581655,14.878871 c 14.074055,-1.136156 19.293275,0.110876 32.751675,7.825386 13.8796,7.95595 20.91256,17.73806 22.75303,31.647096 1.57601,11.910478 -3.36897,19.78856 -27.84401,44.359595 C 108.32411,116.69947 105.3365,120.3189 102.85027,127.05002 101.28262,131.29419 100,136.84419 100,139.38335 100,141.92251 99.4,144 98.666667,144 c -0.733334,0 -1.333334,-2.32456 -1.333334,-5.16569 z"
       id="path4960"
       inkscape:connector-curvature="0" />
    <path
       style="fill:#1772a1;stroke-width:1.33333337"
       d="m 198.43552,193.99108 c -0.28391,-0.28391 -4.39804,-0.81011 -9.14252,-1.16935 -11.45772,-0.86752 -24.69405,-5.1204 -31.48909,-10.11752 -7.08435,-5.20989 -15.13724,-21.3212 -15.13724,-30.28486 0,-7.79076 3.1248,-11.68836 33.7413,-42.08602 l 23.83707,-23.666663 h 9.43493 c 22.45434,0 39.31674,5.345908 56.37799,17.873583 14.6814,10.78022 22.62132,27.34097 19.36175,40.38395 -5.38618,21.55239 -29.89688,39.59339 -62.75304,46.18911 -11.00552,2.2093 -23.42467,3.68424 -24.23115,2.87777 z M 97.333333,138.91299 c 0,-2.88442 0.848628,-7.64965 1.885839,-10.58942 l 1.885838,-5.34504 -4.885838,-0.80792 c -2.687211,-0.44436 -6.827228,-0.81453 -9.200037,-0.8226 C 77.188812,121.31457 51.865293,113.64265 40.325243,107.2018 29.133076,100.95512 16.902824,88.917647 13.131895,80.437093 11.434015,76.61868 10.274542,71.287927 10.281746,67.333333 10.295299,59.892809 12.363718,56.815929 27.118752,42.287419 41.92744,27.706079 69.184556,17.252012 98.581655,14.878871 c 14.074055,-1.136156 19.293275,0.110876 32.751675,7.825386 13.8796,7.95595 20.91256,17.73806 22.75303,31.647096 1.57601,11.910478 -3.36897,19.78856 -27.84401,44.359595 C 108.32411,116.69947 105.3365,120.3189 102.85027,127.05002 101.28262,131.29419 100,136.50879 100,138.638 c 0,2.1292 -0.6,4.24211 -1.333333,4.69533 -0.802568,0.49602 -1.333334,-1.26361 -1.333334,-4.42034 z"
       id="path4958"
       inkscape:connector-curvature="0" />
    <path
       style="fill:#557958;stroke-width:1.33333337"
       d="m 198.43552,193.99108 c -0.28391,-0.28391 -4.39804,-0.81011 -9.14252,-1.16935 -4.74448,-0.35922 -12.58447,-1.88681 -17.42217,-3.39462 -8.60548,-2.68214 -21.20416,-10.79635 -21.20416,-13.65658 0,-0.79236 -1.8,-4.98282 -4,-9.31213 -4.47142,-8.79916 -4.86487,-11.17107 -2.11091,-12.72548 1.03899,-0.58644 4.07799,-4.96625 6.75332,-9.73292 3.59375,-6.40304 10.81173,-14.54285 27.63521,-31.16456 l 22.77099,-22.497895 8.66767,0.888028 c 12.38616,1.269 29.01136,5.365074 40.82768,10.059017 5.60566,2.22681 11.5944,4.04874 13.30829,4.04874 4.09905,0 14.65647,11.27588 18.40239,19.65474 12.08584,27.03345 -15.26748,57.04797 -60.25464,66.11682 -10.98195,2.21382 -23.42179,3.69554 -24.23115,2.88619 z M 97.333333,138.91299 c 0,-2.88442 0.882411,-7.7454 1.960911,-10.8022 C 101.60907,121.54987 101.9217,121.75128 88,120.83474 72.195036,119.79422 57.162357,115.45714 40.568757,107.15033 32.379721,103.05087 17.787031,89.458176 14.830533,83.175869 13.835955,81.062475 12.492212,78.291475 11.844438,77.018092 10.081548,73.552635 10.363454,72.226243 13.850856,67.577704 15.60216,65.2433 18.56416,60.278268 20.433079,56.5443 30.372377,36.686276 60.376449,21.967881 94,20.4563 c 14.15241,-0.636237 15.15199,-0.493199 28.50815,4.079485 7.61282,2.606363 14.41466,4.384599 15.11521,3.951636 1.94623,-1.202838 10.41181,7.513723 13.12351,13.512579 1.32597,2.933333 2.82874,8.491443 3.33949,12.351353 1.57601,11.910478 -3.36897,19.78856 -27.84401,44.359595 C 108.32411,116.69947 105.3365,120.3189 102.85027,127.05002 101.28262,131.29419 100,136.50879 100,138.638 c 0,2.1292 -0.6,4.24211 -1.333333,4.69533 -0.802568,0.49602 -1.333334,-1.26361 -1.333334,-4.42034 z"
       id="path4956"
       inkscape:connector-curvature="0" />
    <path
       style="fill:#5c8644;stroke-width:1.33333337"
       d="m 183.22031,192.52332 c -17.48435,-4.15827 -31.32455,-11.67925 -32.95323,-17.90733 -0.73304,-2.80314 -0.68904,-2.81183 2.15899,-0.42623 1.99072,1.66749 1.79417,1.18076 -0.62346,-1.54393 -8.05846,-9.08196 -11.01125,-16.78818 -7.24685,-18.91291 1.03899,-0.58644 4.07799,-4.96625 6.75332,-9.73292 3.59375,-6.40304 10.81173,-14.54285 27.63521,-31.16456 l 22.77099,-22.497895 8.66767,0.888028 c 12.38616,1.269 29.01136,5.365074 40.82768,10.059017 5.60566,2.22681 11.5944,4.04874 13.30829,4.04874 4.09905,0 14.65647,11.27588 18.40239,19.65474 6.40122,14.31817 2.56017,28.42198 -11.53235,42.34526 -16.97485,16.77099 -44.40717,26.4621 -73.03508,25.80134 -7.65229,-0.17663 -14.4624,-0.45174 -15.13357,-0.61135 z M 160,179.49659 c 0,-0.27687 -1.05,-1.32687 -2.33333,-2.33334 -2.11475,-1.65849 -2.16191,-1.61133 -0.50342,0.50342 1.74183,2.221 2.83675,2.9273 2.83675,1.82992 z M 97.333333,138.79472 c 0,-2.94947 1.13212,-8.23488 2.515823,-11.74536 l 2.515824,-6.38269 -11.515824,-0.0577 C 74.729979,120.52829 58.745612,116.24972 40.568757,107.15033 32.379721,103.05087 17.787031,89.458176 14.830533,83.175869 13.835955,81.062475 12.492212,78.291475 11.844438,77.018092 10.081548,73.552635 10.363454,72.226243 13.850856,67.577704 15.60216,65.2433 18.56416,60.278268 20.433079,56.5443 30.372377,36.686276 60.376449,21.967881 94,20.4563 c 14.15241,-0.636237 15.15199,-0.493199 28.50815,4.079485 7.61282,2.606363 14.41466,4.384599 15.11521,3.951636 1.94623,-1.202838 10.41181,7.513723 13.12351,13.512579 1.32597,2.933333 2.82874,8.491443 3.33949,12.351353 1.57601,11.910478 -3.36897,19.78856 -27.84401,44.359595 C 108.32411,116.69947 105.3365,120.3189 102.85027,127.05002 101.28262,131.29419 100,136.50879 100,138.638 c 0,2.1292 -0.6,4.24211 -1.333333,4.69533 -0.804472,0.49719 -1.333334,-1.30304 -1.333334,-4.53861 z M 117.33333,103.33333 C 123.53429,97.1 128.30779,92 127.94113,92 127.57446,92 122.20095,97.1 116,103.33333 c -6.20095,6.23334 -10.97446,11.33334 -10.60779,11.33334 0.36666,0 5.74017,-5.1 11.94112,-11.33334 z m 21.33334,-19.999997 c 2.4877,-2.566666 4.2231,-4.666666 3.85644,-4.666666 -0.36667,0 -2.70207,2.1 -5.18978,4.666666 C 134.84563,85.9 133.11022,88 133.47689,88 c 0.36667,0 2.70207,-2.1 5.18978,-4.666667 z M 145.50341,75 c 1.6585,-2.114741 1.61134,-2.161901 -0.50341,-0.503407 -1.28333,1.006459 -2.33333,2.056459 -2.33333,2.333334 0,1.097378 1.09492,0.39107 2.83674,-1.829927 z m 6.45575,-11.666667 C 151.95916,62.6 151.37755,62.9 150.66667,64 c -0.71088,1.1 -1.2925,2.6 -1.2925,3.333333 0,0.733334 0.58162,0.433334 1.2925,-0.666666 0.71088,-1.1 1.29249,-2.6 1.29249,-3.333334 z"
       id="path4954"
       inkscape:connector-curvature="0" />
    <path
       style="fill:#5a8635;stroke-width:1.33333337"
       d="m 183.22031,192.52332 c -17.3307,-4.12172 -31.32338,-11.67477 -32.9168,-17.76803 -0.59908,-2.2909 0.16538,-2.01341 4.82565,1.7517 3.04563,2.4606 7.03751,5.1654 8.87084,6.01065 2.82097,1.30059 2.94729,1.27644 0.82188,-0.15708 -8.91799,-6.01488 -15.80415,-12.42423 -18.75101,-17.45269 -3.84808,-6.56624 -4.26267,-9.62415 -1.51511,-11.17495 1.03899,-0.58644 4.07799,-4.96625 6.75332,-9.73292 3.59375,-6.40304 10.81173,-14.54285 27.63521,-31.16456 l 22.77099,-22.497895 8.66767,0.888028 c 12.38616,1.269 29.01136,5.365074 40.82768,10.059017 5.60566,2.22681 11.5944,4.04874 13.30829,4.04874 4.09905,0 14.65647,11.27588 18.40239,19.65474 6.40122,14.31817 2.56017,28.42198 -11.53235,42.34526 -16.97485,16.77099 -44.40717,26.4621 -73.03508,25.80134 -7.65229,-0.17663 -14.4624,-0.45174 -15.13357,-0.61135 z m -1.88698,-3.18999 c -1.1,-0.71088 -2.6,-1.29249 -3.33333,-1.29249 -0.73333,0 -0.43333,0.58161 0.66667,1.29249 1.1,0.71088 2.6,1.2925 3.33333,1.2925 0.73333,0 0.43333,-0.58162 -0.66667,-1.2925 z M 97.488001,138.96669 c -0.08507,-2.40165 0.9472,-7.50165 2.293927,-11.33333 l 2.448592,-6.96669 -11.448592,-0.0577 C 74.729496,120.52816 58.720945,116.23737 40.568757,107.15033 32.379721,103.05087 17.787031,89.458176 14.830533,83.175869 13.835955,81.062475 12.492212,78.291475 11.844438,77.018092 10.081548,73.552635 10.363454,72.226243 13.850856,67.577704 15.60216,65.2433 18.56416,60.278268 20.433079,56.5443 30.372377,36.686276 60.376449,21.967881 94,20.4563 c 14.13426,-0.63542 15.16511,-0.488683 28.3977,4.042291 7.55207,2.585906 14.50191,4.405834 15.4441,4.044286 2.45397,-0.94168 12.16825,10.094194 14.1374,16.060746 1.02523,3.106485 1.31811,7.419416 0.762,11.221149 -0.49681,3.396376 -0.9954,7.181177 -1.10796,8.410669 -0.11253,1.229494 -0.75393,1.895976 -1.42527,1.481072 -0.67132,-0.414902 -0.94009,0.07915 -0.59725,1.097892 0.34284,1.018744 -0.32933,2.646756 -1.49369,3.617804 -1.16436,0.97105 -1.30716,1.348643 -0.31734,0.839098 4.86463,-2.50422 -3.11526,7.031104 -21.81074,26.062026 C 114.82264,108.7 104.80049,119.8 103.7175,122 c -1.74579,3.54642 -3.858701,10.69222 -5.519467,18.66667 -0.321204,1.54232 -0.620576,0.82554 -0.710032,-1.69998 z M 117.33333,103.33333 C 123.53429,97.1 128.30779,92 127.94113,92 127.57446,92 122.20095,97.1 116,103.33333 c -6.20095,6.23334 -10.97446,11.33334 -10.60779,11.33334 0.36666,0 5.74017,-5.1 11.94112,-11.33334 z m 26.99412,-26.666663 c 3.23019,-4.663219 2.5869,-4.055431 -7.05617,6.666666 -6.1013,6.784016 -6.32242,7.189344 -1.45476,2.666667 3.15709,-2.933333 6.98701,-7.133333 8.51093,-9.333333 z"
       id="path4952"
       inkscape:connector-curvature="0" />
    <path
       style="fill:#537a38;stroke-width:1.33333337"
       d="m 186.75981,191.31389 c -3.24876,-1.01258 -6.49146,-1.47974 -7.206,-1.03813 -0.75858,0.46883 -0.86657,0.10293 -0.25952,-0.87927 0.75918,-1.22837 0.3016,-1.44793 -1.69612,-0.81388 -2.9531,0.93728 -9.96853,-1.61049 -14.26484,-5.18052 -2.59166,-2.15354 -2.57292,-2.17553 0.66667,-0.78176 2.87695,1.23776 2.98947,1.2022 0.82188,-0.25977 -8.91799,-6.01488 -15.80415,-12.42423 -18.75101,-17.45269 -3.84808,-6.56624 -4.26267,-9.62415 -1.51511,-11.17495 1.03899,-0.58644 4.07799,-4.96625 6.75332,-9.73292 3.59375,-6.40304 10.81173,-14.54285 27.63521,-31.16456 l 22.77099,-22.497895 8.66767,0.888028 c 12.38616,1.269 29.01136,5.365074 40.82768,10.059017 5.60566,2.22681 11.5944,4.04874 13.30829,4.04874 4.09905,0 14.65647,11.27588 18.40239,19.65474 3.91177,8.7498 3.81201,19.09566 -0.26688,27.6786 -6.09628,12.82796 -23.56539,26.90853 -41.54874,33.48938 -18.08314,6.61739 -42.29154,8.91495 -54.34588,5.15784 z M 98.743475,131.16283 c -0.04224,-0.82711 0.76857,-3.52711 1.801805,-6 l 1.87862,-4.49616 -11.545283,-0.0577 C 74.730184,120.52835 58.756383,116.25511 40.568757,107.15033 32.379721,103.05087 17.787031,89.458176 14.830533,83.175869 13.835955,81.062475 12.492212,78.291475 11.844438,77.018092 10.081548,73.552635 10.363454,72.226243 13.850856,67.577704 15.60216,65.2433 18.56416,60.278268 20.433079,56.5443 30.372377,36.686276 60.376449,21.967881 94,20.4563 c 14.13426,-0.63542 15.16511,-0.488683 28.3977,4.042291 7.55207,2.585906 14.50191,4.405834 15.4441,4.044286 2.45397,-0.94168 12.16825,10.094194 14.1374,16.060746 1.02523,3.106485 1.31811,7.419416 0.762,11.221149 -0.49681,3.396376 -0.9954,7.181177 -1.10796,8.410669 -0.11253,1.229494 -0.75393,1.895976 -1.42527,1.481072 -0.67132,-0.414902 -0.94009,0.07915 -0.59725,1.097892 0.34284,1.018744 -0.32933,2.646756 -1.49369,3.617804 -1.16436,0.97105 -1.30716,1.348643 -0.31734,0.839098 1.48114,-0.762459 1.50924,-0.366944 0.15878,2.234457 -2.24899,4.332224 -41.48256,43.867056 -42.75337,43.081646 -0.56146,-0.347 -1.455,0.0716 -1.98565,0.93019 -0.60256,0.97497 -0.38685,1.20389 0.57454,0.60972 0.84664,-0.52325 1.53934,-0.6929 1.53934,-0.377 0,1.46163 -6.522233,14.73651 -6.589855,13.41251 z m 18.589855,-27.8295 C 123.53429,97.1 128.30779,92 127.94113,92 127.57446,92 122.20095,97.1 116,103.33333 c -6.20095,6.23334 -10.97446,11.33334 -10.60779,11.33334 0.36666,0 5.74017,-5.1 11.94112,-11.33334 z m 26.99412,-26.666663 c 3.23019,-4.663219 2.5869,-4.055431 -7.05617,6.666666 -6.1013,6.784016 -6.32242,7.189344 -1.45476,2.666667 3.15709,-2.933333 6.98701,-7.133333 8.51093,-9.333333 z"
       id="path4950"
       inkscape:connector-curvature="0" />
    <path
       style="fill:#006498;stroke-width:1.33333337"
       d="m 181.61255,189.38232 c -17.27204,-6.09123 -28.83246,-13.95717 -35.14764,-23.9152 -4.19862,-6.62052 -4.76807,-10.12055 -1.90915,-11.7342 1.03899,-0.58644 4.07799,-4.96625 6.75332,-9.73292 3.59375,-6.40304 10.81173,-14.54285 27.63521,-31.16456 l 22.77099,-22.497895 8.66767,0.888028 c 12.38616,1.269 29.01136,5.365074 40.82768,10.059017 5.60566,2.22681 11.5944,4.04874 13.30829,4.04874 4.09905,0 14.65647,11.27588 18.40239,19.65474 6.40122,14.31817 2.56017,28.42198 -11.53235,42.34526 -11.93365,11.79032 -25.66276,18.59883 -47.32141,23.46754 -16.64924,3.74262 -28.98938,3.3303 -42.455,-1.41855 z M 79.748511,120.6374 c -0.382763,-0.38276 -4.532763,-1.53751 -9.222222,-2.56611 C 60.560713,115.88541 51.204512,112.47462 40.568757,107.15033 32.379721,103.05087 17.787031,89.458176 14.830533,83.175869 13.835955,81.062475 12.492212,78.291475 11.844438,77.018092 10.081548,73.552635 10.363454,72.226243 13.850856,67.577704 15.60216,65.2433 18.56416,60.278268 20.433079,56.5443 30.372377,36.686276 60.376449,21.967881 94,20.4563 c 14.13426,-0.63542 15.16511,-0.488683 28.3977,4.042291 7.55207,2.585906 14.50191,4.405834 15.4441,4.044286 2.45397,-0.94168 12.16825,10.094194 14.1374,16.060746 0.91591,2.775257 1.37817,7.524774 1.02725,10.554482 C 151.68407,66.574767 147.18113,73.022964 125.88219,94 c -11.1688,11 -21.33035,21.65 -22.58123,23.66667 -2.16279,3.48685 -2.77901,3.66666 -12.565417,3.66666 -5.660104,0 -10.604268,-0.31317 -10.987032,-0.69593 z"
       id="path4948"
       inkscape:connector-curvature="0" />
    <path
       style="fill:#006295;stroke-width:1.33333337"
       d="m 181.8278,189.45767 c -5.96137,-2.10268 -13.76137,-5.52632 -17.33333,-7.6081 -7.69492,-4.48468 -19.16114,-15.52698 -19.16114,-18.45274 0,-3.73627 7.27742,-2.35471 14.7794,2.80574 17.46828,12.01607 36.34918,17.44256 52.20494,15.00407 21.31013,-3.27733 39.60997,-11.44371 51.37842,-22.92783 8.51336,-8.30765 10.97058,-14.40069 10.97058,-27.20318 0,-17.02381 4.35205,-17.46366 9.96485,-1.00712 4.10197,12.02678 -0.33488,24.51216 -13.24256,37.26482 -11.93365,11.79032 -25.66276,18.59883 -47.32141,23.46754 -16.55416,3.72125 -29.00376,3.32536 -42.23975,-1.3432 z M 79.748511,120.6374 c -0.382763,-0.38276 -4.532763,-1.53751 -9.222222,-2.56611 C 53.615631,114.36205 36.669197,106.46358 27.687579,98.104824 21.932839,92.749167 13.333333,82.386864 13.333333,80.808128 13.333333,80.363657 15.000265,80 17.037627,80 c 3.617717,0 5.764142,1.269557 17.769458,10.510189 12.226512,9.41089 38.502252,18.789741 52.708635,18.813801 5.332627,0.009 6.224021,-0.68775 26.85341,-20.990657 11.94477,-11.75574 22.51628,-23.353881 24.0151,-26.347264 1.47257,-2.940996 3.11257,-8.940996 3.64445,-13.333333 1.00652,-8.312141 2.42989,-11.319403 5.35764,-11.319403 2.79363,0 6.38255,11.232511 5.63971,17.651018 C 151.68336,66.585735 147.25655,72.948688 125.88219,94 c -11.1688,11 -21.33035,21.65 -22.58123,23.66667 -2.16279,3.48685 -2.77901,3.66666 -12.565417,3.66666 -5.660104,0 -10.604268,-0.31317 -10.987032,-0.69593 z"
       id="path4946"
       inkscape:connector-curvature="0" />
    <path
       style="fill:#005a89;stroke-width:1.33333337"
       d="m 181.8278,189.45767 c -12.84731,-4.53148 -20.90565,-9.05832 -28.74327,-16.1468 -4.98848,-4.51168 -5.36534,-5.20875 -2.8417,-5.25619 1.60022,-0.03 8.20022,2.59824 14.66666,5.84069 16.52478,8.28598 25.49322,10.69654 39.09051,10.50683 14.11609,-0.19693 29.20515,-4.01649 43.33333,-10.96915 19.23555,-9.46604 27.12536,-18.75782 31.49268,-37.0887 1.3099,-5.49804 2.66131,-10.27611 3.00312,-10.61792 1.58432,-1.58433 4.04847,6.34285 4.02244,12.94024 -0.0395,10.01562 -4.46664,18.79074 -14.46261,28.66666 -11.93365,11.79032 -25.66276,18.59883 -47.32141,23.46754 -16.55416,3.72125 -29.00376,3.32536 -42.23975,-1.3432 z M 79.748511,120.6374 c -0.382763,-0.38276 -4.532763,-1.53751 -9.222222,-2.56611 -18.403784,-4.03675 -34.389874,-11.87203 -44.805982,-21.960829 -4.137963,-4.007933 -6.860815,-7.508069 -6.050782,-7.778081 0.810034,-0.270011 6.823446,2.734737 13.363139,6.677219 6.539695,3.94248 16.739136,8.770691 22.665428,10.729351 14.621845,4.83257 33.651279,8.0502 37.780497,6.3882 3.825635,-1.53981 40.760901,-37.508215 45.290101,-44.10453 1.7538,-2.554225 4.69831,-9.110068 6.54335,-14.568539 3.82581,-11.318468 6.11377,-13.204013 7.44051,-6.131858 C 155.35556,61.197416 150.33779,69.91402 125.88219,94 c -11.1688,11 -21.33035,21.65 -22.58123,23.66667 -2.16279,3.48685 -2.77901,3.66666 -12.565417,3.66666 -5.660104,0 -10.604268,-0.31317 -10.987032,-0.69593 z"
       id="path4944"
       inkscape:connector-curvature="0" />
    <path
       style="fill:#005079;stroke-width:1.33333337"
       d="m 188.66667,191.80855 c -7.44274,-2.44542 -20.77126,-8.1484 -20.25359,-8.66607 0.28292,-0.28292 4.65572,0.84428 9.71733,2.50489 13.51908,4.43535 34.07542,4.0857 50.47047,-0.85848 24.90313,-7.50992 40.38888,-18.42462 51.25009,-36.12222 5.43036,-8.84842 5.69187,-9.0771 5.03338,-4.40146 -1.10915,7.8755 -4.90336,14.52766 -12.82942,22.49303 -11.55597,11.61329 -27.55449,19.27208 -52.4074,25.08843 -7.68028,1.79741 -25.46092,1.77554 -30.98086,-0.0381 z M 80.666667,119.98922 c -13.426804,-2.54354 -18.074684,-3.78463 -27.125222,-7.24303 -5.331884,-2.03743 -9.478914,-3.91983 -9.215622,-4.18312 0.263292,-0.2633 4.193989,0.64618 8.734884,2.02105 12.453032,3.77048 33.111682,7.17834 38.356236,6.32726 7.160557,-1.162 43.202807,-36.227289 53.535147,-52.084037 8.73727,-13.408811 11.02286,-12.605294 4.40396,1.548244 -3.56697,7.627454 -7.13101,11.828892 -23.99905,28.29108 C 114.46152,105.3 104.52995,115.65 103.28684,117.66667 c -2.05869,3.33975 -2.93007,3.65178 -9.77352,3.49977 -4.132325,-0.0918 -9.91332,-0.62153 -12.846653,-1.17722 z"
       id="path4942"
       inkscape:connector-curvature="0" />
  </g>
</svg>
