<?xml version="1.0" encoding="UTF-8" standalone="no"?>
<!-- Created with Inkscape (http://www.inkscape.org/) -->

<svg
   xmlns:dc="http://purl.org/dc/elements/1.1/"
   xmlns:cc="http://creativecommons.org/ns#"
   xmlns:rdf="http://www.w3.org/1999/02/22-rdf-syntax-ns#"
   xmlns:svg="http://www.w3.org/2000/svg"
   xmlns="http://www.w3.org/2000/svg"
   xmlns:xlink="http://www.w3.org/1999/xlink"
   xmlns:sodipodi="http://sodipodi.sourceforge.net/DTD/sodipodi-0.dtd"
   xmlns:inkscape="http://www.inkscape.org/namespaces/inkscape"
   width="1000"
   height="800"
   viewBox="0 0 264.58333 211.66666"
   version="1.1"
   id="svg8"
   inkscape:version="0.92.5 (2060ec1f9f, 2020-04-08)"
   sodipodi:docname="TIMEWARP ENTERPRISES.svg">
  <defs
     id="defs2">
    <inkscape:path-effect
       effect="spiro"
       id="path-effect1306"
       is_visible="true" />
    <inkscape:path-effect
       is_visible="true"
       id="path-effect1302"
       effect="spiro" />
    <inkscape:path-effect
       effect="spiro"
       id="path-effect1298"
       is_visible="true" />
    <inkscape:path-effect
       is_visible="true"
       id="path-effect1246"
       effect="spiro" />
    <inkscape:path-effect
       effect="spiro"
       id="path-effect1242"
       is_visible="true" />
    <inkscape:path-effect
       effect="spiro"
       id="path-effect1238"
       is_visible="true" />
    <inkscape:path-effect
       is_visible="true"
       id="path-effect1234"
       effect="spiro" />
    <inkscape:path-effect
       effect="spiro"
       id="path-effect1222"
       is_visible="true" />
    <inkscape:path-effect
       is_visible="true"
       id="path-effect1218"
       effect="spiro" />
    <inkscape:path-effect
       is_visible="true"
       id="path-effect1214"
       effect="spiro" />
    <inkscape:path-effect
       effect="spiro"
       id="path-effect1210"
       is_visible="true" />
    <inkscape:path-effect
       is_visible="true"
       id="path-effect1190"
       effect="spiro" />
    <inkscape:path-effect
       effect="spiro"
       id="path-effect1186"
       is_visible="true" />
    <inkscape:path-effect
       effect="spiro"
       id="path-effect1182"
       is_visible="true" />
    <inkscape:path-effect
       is_visible="true"
       id="path-effect1178"
       effect="spiro" />
    <inkscape:path-effect
       effect="spiro"
       id="path-effect1158"
       is_visible="true" />
    <inkscape:path-effect
       is_visible="true"
       id="path-effect1154"
       effect="spiro" />
    <inkscape:path-effect
       is_visible="true"
       id="path-effect1150"
       effect="spiro" />
    <inkscape:path-effect
       effect="spiro"
       id="path-effect1146"
       is_visible="true" />
    <linearGradient
       id="linearGradient2066"
       inkscape:collect="always">
      <stop
         id="stop2062"
         offset="0"
         style="stop-color:#b3b3b3;stop-opacity:1;" />
      <stop
         id="stop2064"
         offset="1"
         style="stop-color:#ffffff;stop-opacity:1" />
    </linearGradient>
    <linearGradient
       y2="1244.4532"
       x2="2419.0332"
       y1="1244.4532"
       x1="2343.7148"
       gradientTransform="matrix(0.43058963,0,0,0.43058963,-87.12881,-639.7632)"
       gradientUnits="userSpaceOnUse"
       id="linearGradient2193"
       xlink:href="#linearGradient2066"
       inkscape:collect="always" />
    <clipPath
       id="clipPath36133"
       clipPathUnits="userSpaceOnUse">
      <path
         style="clip-rule:evenodd"
         id="path36135"
         d="M 0,892.48819 V 0.03554 h 1152.2663 v 892.45265 z"
         inkscape:connector-curvature="0" />
    </clipPath>
    <clipPath
       id="clipPath36237"
       clipPathUnits="userSpaceOnUse">
      <path
         style="clip-rule:evenodd"
         id="path36239"
         d="M 0,892.48819 H 1152.1463 V -0.08425 H 0 Z"
         inkscape:connector-curvature="0" />
    </clipPath>
    <clipPath
       id="clipPath36257"
       clipPathUnits="userSpaceOnUse">
      <path
         style="clip-rule:evenodd"
         id="path36259"
         d="M 0,892.48819 H 1152.1463 V -0.08425 H 0 Z"
         inkscape:connector-curvature="0" />
    </clipPath>
    <clipPath
       id="clipPath36267"
       clipPathUnits="userSpaceOnUse">
      <path
         style="clip-rule:evenodd"
         id="path36269"
         d="M 0.48001,771.0628 V 125.54045 H 1152.2663 V 771.0628 Z"
         inkscape:connector-curvature="0" />
    </clipPath>
    <clipPath
       id="clipPath36365"
       clipPathUnits="userSpaceOnUse">
      <path
         style="clip-rule:evenodd"
         id="path36367"
         d="M 0,892.48819 H 1152.1463 V -0.08425 H 0 Z"
         inkscape:connector-curvature="0" />
    </clipPath>
    <clipPath
       id="clipPath36381"
       clipPathUnits="userSpaceOnUse">
      <path
         style="clip-rule:evenodd"
         id="path36383"
         d="M 0,0 H 1152 V 892.48819 H 0 Z"
         inkscape:connector-curvature="0" />
    </clipPath>
    <clipPath
       id="clipPath36389"
       clipPathUnits="userSpaceOnUse">
      <path
         style="clip-rule:evenodd"
         id="path36391"
         d="M 0,892.48819 V 0.03554 h 1152.2663 v 892.45265 z"
         inkscape:connector-curvature="0" />
    </clipPath>
    <clipPath
       id="clipPath36407"
       clipPathUnits="userSpaceOnUse">
      <path
         style="clip-rule:evenodd"
         id="path36409"
         d="M 0,892.48819 V 0.03554 h 1152.2663 v 892.45265 z"
         inkscape:connector-curvature="0" />
    </clipPath>
    <clipPath
       id="clipPath36425"
       clipPathUnits="userSpaceOnUse">
      <path
         style="clip-rule:evenodd"
         id="path36427"
         d="M 0,892.48819 V 0.03554 h 1152.2663 v 892.45265 z"
         inkscape:connector-curvature="0" />
    </clipPath>
    <clipPath
       id="clipPath36443"
       clipPathUnits="userSpaceOnUse">
      <path
         style="clip-rule:evenodd"
         id="path36445"
         d="M 0,892.48819 V 0.03554 h 1152.2663 v 892.45265 z"
         inkscape:connector-curvature="0" />
    </clipPath>
    <clipPath
       id="clipPath36461"
       clipPathUnits="userSpaceOnUse">
      <path
         style="clip-rule:evenodd"
         id="path36463"
         d="M 0,892.48819 V 0.03554 h 1152.2663 v 892.45265 z"
         inkscape:connector-curvature="0" />
    </clipPath>
    <clipPath
       id="clipPath36475"
       clipPathUnits="userSpaceOnUse">
      <path
         style="clip-rule:evenodd"
         id="path36477"
         d="M 0,892.48819 V 0.03554 h 1152.2663 v 892.45265 z"
         inkscape:connector-curvature="0" />
    </clipPath>
    <clipPath
       id="clipPath36813"
       clipPathUnits="userSpaceOnUse">
      <path
         id="path36815"
         d="m 9.1027608,790.11962 c -4.7447143,-1.3302 -9.77566638,0.79812 -14.5644174,0 -1.89292,-0.31548 -3.5798922,-1.4442 -5.4616564,-1.82055 -1.190133,-0.23803 -2.463641,0.29436 -3.641105,0 -2.632888,-0.65822 -4.620992,-3.10886 -7.282208,-3.6411 -1.785199,-0.35704 -3.676458,0.35704 -5.461656,0 -2.661217,-0.53225 -4.70756,-2.78289 -7.282209,-3.64111 -3.362949,-1.12098 -0.863119,2.77799 -5.461657,-1.82055 -0.429108,-0.42911 0.429108,-1.39145 0,-1.82055 -0.429108,-0.42911 -1.391444,0.4291 -1.820552,0 -0.429108,-0.42911 0.429108,-1.39145 0,-1.82055 -0.858217,-0.85823 -2.782888,0.85821 -3.641105,0 -0.858216,-0.85823 0.542784,-2.55555 0,-3.64111 -0.383805,-0.76761 -1.436745,-1.05294 -1.820552,-1.82056 -0.542784,-1.08556 0.383807,-2.48968 0,-3.6411 -0.858216,-2.57465 -2.782888,-4.70755 -3.641104,-7.28221 -0.191903,-0.5757 0.271392,-1.27777 0,-1.82055 -4.165977,-8.33195 0.754568,7.72536 -3.641105,-5.46166 -0.393188,-1.17956 0,-7.61227 0,-9.10276 0,-2.4274 0,-4.8548 0,-7.2822 0,-1.21371 0,-2.4274 0,-3.64111 0,-0.60685 -0.147182,-1.23182 0,-1.82055 0.465434,-1.86174 1.4442,-3.5799 1.820553,-5.46166 1.945222,-9.72611 -3.459473,4.09731 1.820552,-9.10276 1.69795,-4.24487 2.778531,-3.92732 3.641104,-9.10276 0.299297,-1.79578 -0.299297,-3.66588 0,-5.46165 0.315487,-1.89292 1.355119,-3.59993 1.820552,-5.46166 0.750489,-3.00196 1.070064,-6.10081 1.820553,-9.10277 0.465433,-1.86172 1.444199,-3.57988 1.820552,-5.46165 0.249311,-1.24655 0.249311,-9.67675 0,-10.92331 -0.376353,-1.88176 -1.505066,-3.56874 -1.820552,-5.46166 -0.299298,-1.79578 0.299297,-3.66587 0,-5.46166 -0.315487,-1.89292 -1.293354,-3.61646 -1.820553,-5.46165 -0.687382,-2.40584 -1.133169,-4.87637 -1.820552,-7.28221 -1.054396,-3.69038 -3.010131,-7.13747 -3.641104,-10.92331 -0.299297,-1.79579 0.299297,-3.66588 0,-5.46166 -0.630973,-3.78584 -2.808512,-7.17665 -3.641105,-10.92331 -0.800761,-3.60343 -1.160227,-7.29153 -1.820552,-10.92331 -0.553532,-3.04443 -1.478839,-6.02735 -1.820552,-9.10277 -0.268061,-2.41255 0.219767,-4.86477 0,-7.28221 -0.388496,-4.27345 -1.491441,-8.46541 -1.820552,-12.74386 -0.511976,-6.6557 0,-13.35071 0,-20.02607 0,-12.13702 0,-24.27404 0,-36.41105 0,-4.24795 0.325804,-8.50842 0,-12.74387 -0.283112,-3.68045 -1.486355,-7.24714 -1.820552,-10.92331 -0.274708,-3.02179 0,-6.0685 0,-9.10276 -0.606851,-3.6411 -1.412913,-7.25456 -1.820552,-10.92331 -0.201047,-1.80942 0,-3.6411 0,-5.46166 0,-6.06851 0,-12.13701 0,-18.20552 0,-1.33643 0.317345,-10.28862 0,-10.92332 -2.775943,-5.55188 -1.443268,3.3297 -3.641104,-5.46165 -0.441549,-1.76619 0.575708,-3.73453 0,-5.46166 -0.429109,-1.28732 -1.316591,-2.3812 -1.820552,-3.6411 -0.712711,-1.78178 -1.107843,-3.67988 -1.820553,-5.46166 -0.503962,-1.2599 -1.491441,-2.32465 -1.820552,-3.6411 -0.588732,-2.35493 0.476053,-4.90195 0,-7.28221 0.417779,-3.65593 -2.8485,-5.93234 -3.641104,-9.10276 -0.294367,-1.17746 0.238026,-2.45098 0,-3.6411 -0.376353,-1.88177 -1.505066,-3.56874 -1.820553,-5.46166 -0.299297,-1.79578 0,-3.6411 0,-5.46166 0,-1.82055 0,-3.6411 0,-5.46165 0,-1.21371 0.294366,-2.46364 0,-3.64111 -0.32911,-1.31644 -1.55443,-2.31049 -1.820552,-3.6411 -0.384496,-1.92249 0,-10.111 0,-12.74386 0,-3.03426 0,-6.06852 0,-9.10277 0,-1.2137 -0.294368,-2.46364 0,-3.64111 0.658222,-2.63288 2.982882,-4.64932 3.641105,-7.2822 0.294365,-1.17747 -0.238027,-2.45097 0,-3.64111 0.376353,-1.88176 1.444199,-3.57989 1.820552,-5.46165 0.238026,-1.19013 0,-2.4274 0,-3.64111 0,-4.87619 0,-2.40601 0,-7.28221 0,-7.88905 0,-15.77812 0,-23.66717 0,-1.70917 -0.347721,-8.0596 0,-9.10276 0.542784,-1.62835 3.098321,-2.01276 3.641104,-3.64111 0.383806,-1.15142 -0.294366,-2.46364 0,-3.6411 -1.097299,-3.2951 2.949188,-3.38591 3.641105,-5.46166 0.383805,-1.15142 -0.383807,-2.48968 0,-3.64111 0.271392,-0.81417 1.344499,-1.10647 1.820552,-1.82055 1.505411,-2.25811 2.135692,-5.02409 3.641104,-7.28221 0.476053,-0.71408 1.3445,-1.10647 1.820552,-1.82055 5.300894,-7.95134 -0.80688,0.60009 1.820552,-7.28221 0.542784,-1.62835 2.873492,-2.10588 3.641104,-3.6411 0.271392,-0.54279 -0.271392,-1.27777 0,-1.82055 0.383807,-0.76761 1.436747,-1.05294 1.820553,-1.82056 0.271391,-0.54278 -0.429109,-1.39144 0,-1.82055 0.858216,-0.85821 2.782887,0.85822 3.641104,0 0.429108,-0.4291 -0.429108,-1.39144 0,-1.82055 0.429108,-0.4291 1.213702,0 1.820552,0 1.213702,0 2.427403,0 3.641105,0 2.427402,0 4.854806,0 7.282209,0 1.213701,0 2.450972,-0.23802 3.641104,0 1.881764,0.37635 3.579892,1.4442 5.461657,1.82055 1.190132,0.23803 2.427402,0 3.641104,0 3.034253,0 6.109792,-0.49882 9.10276,0 1.89292,0.31549 3.561914,1.54916 5.4616572,1.82055 2.4030062,0.34329 4.8548057,0 7.2822086,0 2.42740293,0 4.8548058,0 7.2822088,0 9.7096114,0 19.4302134,-0.46184 29.1288344,0 14.598359,0.69516 29.118283,2.56148 43.693253,3.64111 57.459396,4.25625 -2.007038,-0.57451 52.796016,3.6411 7.28592,0.56046 14.54671,1.48874 21.84662,1.82055 6.06225,0.27556 12.13702,0 18.20552,0 3.03426,0 6.08097,-0.2747 9.10276,0 3.67617,0.3342 7.25456,1.41292 10.92332,1.82056 1.50027,0.16669 11.52188,-0.40732 12.74387,0 0.81417,0.27139 1.00637,1.54916 1.82055,1.82055 1.15142,0.38381 2.45097,-0.23803 3.6411,0 1.88176,0.37635 3.64111,1.2137 5.46166,1.82055 3.03425,0 6.08097,-0.2747 9.10276,0 3.67617,0.3342 7.2749,1.25926 10.92331,1.82055 4.24119,0.6525 8.49043,1.25343 12.74387,1.82055 14.54678,1.93958 29.131,3.64138 43.69325,5.46166 4.8548,0.60686 9.68135,1.51537 14.56442,1.82055 4.84535,0.30284 9.71798,-0.28508 14.56441,0 10.33071,0.60769 17.49571,2.00568 27.30828,3.64111 7.28221,1.2137 14.58306,2.32045 21.84664,3.64111 3.04442,0.55353 6.02733,1.47883 9.10276,1.82055 4.22196,0.4691 8.4959,0 12.74386,0 4.24795,0 8.49591,0 12.74386,0 1.21371,0 2.44392,0.19953 3.64111,0 2.46806,-0.41135 4.83968,-1.27778 7.28221,-1.82055 6.04132,-1.34252 12.20161,-2.14013 18.20552,-3.64111 1.86173,-0.46544 3.6411,-1.2137 5.46165,-1.82056 1.82055,-0.60684 3.67989,-1.10784 5.46166,-1.82055 1.25991,-0.50396 2.35378,-1.39144 3.6411,-1.82055 0.57571,-0.1919 1.39145,0.42911 1.82056,0 0.42911,-0.4291 -0.42911,-1.39144 0,-1.82055 3.76679,-3.76679 -0.14725,5.75615 3.64111,-1.82055 0.27139,-0.54279 -0.19191,-1.24484 0,-1.82056 0.85821,-2.57464 2.98288,-4.64932 3.6411,-7.2822 0.29436,-1.17747 -0.72822,-2.67015 0,-3.64111 1.31282,-1.75042 3.6411,-2.4274 5.46166,-3.6411 1.21369,-2.4274 2.06367,-5.0738 3.6411,-7.28221 2.52854,-3.53996 6.40565,-5.73137 9.10276,-9.10276 9.70961,-12.13702 -3.03426,0.60685 9.10276,-9.10276 6.24695,-4.99756 2.28465,-5.10471 7.28221,-9.10276 1.49851,-1.19881 4.10469,-0.46359 5.46165,-1.82055 0.85822,-0.85822 -0.54278,-2.55554 0,-3.64111 0.2714,-0.54278 1.39145,0.42911 1.82056,0 0.42911,-0.42911 -0.42911,-1.39144 0,-1.82055 0.42911,-0.42911 1.39144,0.42911 1.82055,0 0.42911,-0.42911 -0.42911,-1.39145 0,-1.82055 0.42911,-0.42911 1.39145,0.4291 1.82055,0 1.21905,-1.21905 -1.21905,-2.42206 0,-3.6411 0.42911,-0.42912 1.39145,0.4291 1.82055,0 0.85822,-0.85822 -0.85821,-2.78289 0,-3.64111 0.42911,-0.42911 1.39145,0.42911 1.82055,0 0.42912,-0.42911 -0.4291,-1.39145 0,-1.82055 0.11667,-0.11666 6.9431,-3.41503 7.28221,-3.64111 0.71408,-0.47605 1.00638,-1.54916 1.82055,-1.82055 1.15143,-0.3838 2.55554,0.54278 3.64111,0 0.54278,-0.2714 -0.27139,-1.27777 0,-1.82056 0.38381,-0.7676 1.2137,-1.21369 1.82055,-1.82055 0.60686,-0.60685 1.05294,-1.43674 1.82055,-1.82055 0.54279,-0.27139 1.39145,0.42911 1.82055,0 0.95952,-0.95951 1.06785,-2.51204 1.82056,-3.6411 1.66969,-2.50454 2.8086,-1.8724 5.46166,-3.64111 1.42815,-0.9521 2.10588,-2.87349 3.6411,-3.6411 1.71644,-0.85822 3.67988,-1.10784 5.46166,-1.82055 2.51981,-1.00792 4.70756,-2.78289 7.28221,-3.64111 0.5757,-0.1919 1.24484,0.19191 1.82055,0 1.28732,-0.4291 2.51204,-1.06785 3.6411,-1.82055 2.97334,-1.98222 0.74735,-2.69824 5.46166,-3.6411 1.7852,-0.35704 3.77131,0.67613 5.46166,0 2.96372,-2.96372 3.39996,-4.16758 7.2822,-5.46166 0.57572,-0.1919 1.24484,0.1919 1.82056,0 2.57464,-0.85822 4.70756,-2.78289 7.2822,-3.6411 0.57572,-0.19191 1.24485,0.1919 1.82056,0 2.57464,-0.85822 4.8548,-2.4274 7.2822,-3.64111 1.21371,-0.60685 2.51205,-1.06785 3.64111,-1.82055 4.16597,-2.77732 -1.13838,-1.4411 5.46165,-3.6411 0.57572,-0.19191 1.27777,0.27139 1.82056,0 0.76761,-0.38381 1.05294,-1.43675 1.82055,-1.82056 0.54278,-0.27139 1.27777,0.2714 1.82055,0 1.53522,-0.76761 2.10588,-2.87349 3.6411,-3.6411 0.54279,-0.27139 1.24485,0.1919 1.82056,0 2.57465,-0.85822 4.64932,-2.98288 7.28221,-3.6411 12.96815,-3.24204 -9.22341,5.50991 9.10276,-1.82056 2.51981,-1.00792 4.8548,-2.4274 7.28221,-3.6411 1.2137,-0.60686 2.51204,-1.06785 3.6411,-1.82055 0.71408,-0.47606 1.05294,-1.43675 1.82056,-1.82055 0.54278,-0.2714 1.27776,0.27139 1.82055,0 0.76761,-0.38381 1.2137,-1.21371 1.82055,-1.82056 0.60685,-0.60685 1.43674,-1.05294 1.82055,-1.82055 0.27139,-0.54278 -0.42911,-1.39145 0,-1.82055 0.42911,-0.42911 1.27777,0.27139 1.82055,0 1.79148,-0.89574 5.49074,-6.38647 7.28221,-7.28221 0.54279,-0.27139 1.27777,0.27139 1.82055,0 0.76762,-0.38381 1.05295,-1.43675 1.82056,-1.82056 0.54278,-0.27139 1.39144,0.42911 1.82055,0 0.42911,-0.4291 -0.42911,-1.39144 0,-1.82055 0.91028,-0.91027 4.55138,0.91028 5.46165,0 0.42912,-0.4291 -0.4291,-1.39144 0,-1.82055 0.42912,-0.42911 1.21371,0 1.82056,0 1.76387,0 9.83776,0.36185 10.92331,0 1.28733,-0.42911 2.32466,-1.49144 3.6411,-1.82055 1.17747,-0.29436 2.42741,0 3.64111,0 1.2137,0 2.4274,0 3.6411,0 3.6411,0 7.28222,0 10.92332,0 10.31646,0 20.63292,0 30.94938,0 13.95757,0 27.91514,0 41.8727,0 4.24796,0 8.49591,0 12.74387,0 2.4274,0 4.90195,-0.47605 7.28221,0 1.88176,0.37636 3.57989,1.4442 5.46166,1.82055 0.95714,0.19143 8.84606,-0.25667 9.10278,0 0.42912,0.42911 -0.42912,1.39145 0,1.82055 0.42912,0.42911 1.2448,-0.1919 1.82056,0 1.28728,0.42911 2.35376,1.39145 3.64104,1.82055 1.28184,0.42727 10.98592,0 12.74392,0 7.28216,0 14.5644,0 21.84664,0 1.26624,0 8.44432,-0.32918 9.10272,0 0.7676,0.38381 1.05296,1.43675 1.82056,1.82056 1.0856,0.54278 2.78288,-0.85822 3.64112,0 0.42912,0.42911 -0.42912,1.39144 0,1.82055 0.3892,0.38923 6.27848,-0.33457 7.28216,0 11.4792,3.82639 -8.00136,-0.14384 10.92336,3.64111 1.7852,0.35704 3.64112,0 5.4616,0 3.64112,0 7.28224,0 10.92336,0 3.03424,0 6.06848,0 9.10272,0 0.60688,0 1.21376,0 1.82056,0 0.60688,0 1.27776,0.27139 1.82056,0 0.7676,-0.38381 1.05296,-1.43675 1.82056,-1.82055 0.5428,-0.2714 1.39144,0.4291 1.82056,0 0.42912,-0.42912 -0.42912,-1.39145 0,-1.82056 0.85824,-0.85822 2.55552,0.54278 3.64112,0 7.57672,-3.78835 -1.94624,0.12568 1.82056,-3.64111 0.42912,-0.4291 1.39144,0.42911 1.82056,0 0.85816,-0.85821 -0.85824,-2.78288 0,-3.6411 0.42904,-0.42911 1.39144,0.42911 1.82056,0 0.85816,-0.85822 -0.85824,-2.78289 0,-3.64111 0.42904,-0.4291 1.39144,0.42912 1.82048,0 0.42912,-0.4291 -0.27136,-1.27776 0,-1.82055 0.38384,-0.76761 1.4368,-1.05293 1.82056,-1.82055 0.27144,-0.54278 -0.27136,-1.27777 0,-1.82055 0.38384,-0.76761 1.4368,-1.05294 1.82056,-1.82055 0.27144,-0.54279 -0.27136,-1.27777 0,-1.82056 0.7676,-1.53522 2.87352,-2.105876 3.64112,-3.6411 0.97096,-1.94192 -1.80224,-2.433504 1.82056,-3.641104 1.15144,-0.383816 2.4636,0.294368 3.64112,0 2.63288,-0.658216 4.70752,-2.782856 7.28216,-3.641096 0.57576,-0.19192 1.27776,0.27136 1.82056,0 1.53528,-0.7676 2.10592,-2.87352 3.64112,-3.64112 0.5428,-0.27136 1.27776,0.27144 1.82056,0 0.7676,-0.38376 1.05296,-1.43672 1.82056,-1.82056 0.5428,-0.27136 1.54912,0.5428 1.82056,0 0,-10.31648 -1.21368,-0.6068 1.82056,-3.64112 0.42912,-0.42904 -0.5428,-1.54912 0,-1.82048 1.08552,-0.5428 2.48968,0.38376 3.64104,0 1.6284,-0.5428 2.10592,-2.87352 3.64112,-3.64112 1.71648,-0.85824 3.74528,-0.96232 5.46168,-1.82056 7.57672,-3.7884 -1.94624,0.12568 1.82056,-3.64112 0.42912,-0.42912 1.39144,0.42912 1.82056,0 2.42736,-2.42744 -3.862,-1.74696 1.82056,-3.64112 1.15136,-0.38376 2.42736,0 3.64104,0 1.21376,0 2.42744,0 3.64112,0 5.46168,0 10.92336,0 16.38496,0 6.67534,0 13.35074,0 20.02604,0 3.0344,0 6.1099,-0.4988 9.1028,0 16.1741,2.69568 -5.2508,0.94544 10.9233,3.64112 17.1379,2.85632 -8.9132,-4.3672 12.7439,1.82056 3.6904,1.0544 7.3598,2.21568 10.9233,3.64112 1.2599,0.50392 2.3247,1.49144 3.6411,1.82056 1.1775,0.29432 2.4897,-0.38384 3.6412,0 0.8141,0.27136 1.1064,1.34448 1.8205,1.82056 1.1291,0.75264 2.3538,1.39144 3.6411,1.82048 0.5757,0.19192 1.2137,0 1.8205,0 0.6069,0.60688 1.053,1.4368 1.8206,1.82056 0.5428,0.27144 1.3914,-0.42912 1.8205,0 0.9596,0.95952 0.8611,2.6816 1.8206,3.64112 0.9595,0.95952 2.6816,0.86104 3.6411,1.82056 0.9595,0.95952 0.735,2.82696 1.8206,3.64112 1.5352,1.15144 3.8649,0.75608 5.4616,1.820536 2.1422,1.42816 3.4837,3.813408 5.4617,5.461656 1.6808,1.400744 3.6411,2.427408 5.4616,3.641108 2.4274,1.82055 4.9784,3.48699 7.2822,5.46165 1.9549,1.67556 3.5069,3.7861 5.4617,5.46166 17.5499,15.04275 -3.3728,-5.19335 14.5644,12.74387 1.2137,1.2137 2.6434,2.24438 3.6411,3.6411 5.3742,7.52382 4.9256,7.49456 7.2822,14.56442 1.2137,3.6411 1.7369,7.59094 3.6412,10.92331 3.0108,5.26894 7.396,9.62627 10.9232,14.56442 2.5436,3.56095 4.9328,7.2314 7.2823,10.92331 1.8997,2.98531 3.1315,6.43976 5.4616,9.10276 1.9981,2.28351 5.1367,3.31612 7.2822,5.46166 2.9749,2.97492 6.5185,9.12584 9.1027,12.74387 6.8416,9.57819 4.7673,5.30406 10.9234,16.38497 1.318,2.37239 3.1089,4.62099 3.6411,7.2822 0.7141,3.5704 -0.5537,7.32455 0,10.92332 3.4705,22.55846 2.853,3.3555 9.1027,23.66717 1.262,4.10133 1.2535,8.49043 1.8206,12.74387 2.6452,19.83923 0.5822,8.37268 3.6411,23.66718 0.6068,3.03425 1.1493,6.0821 1.8206,9.10276 1.0855,4.88506 2.5555,9.67936 3.641,14.56442 0.6713,3.02065 1.1494,6.0821 1.8206,9.10276 1.0856,4.88505 2.9334,9.61049 3.6411,14.56441 0.8625,6.03748 1.0146,12.16025 1.8206,18.20553 -1.1753,5.43239 2.9334,9.61049 3.6411,14.56442 0.3433,2.403 0,4.8548 0,7.2822 0,3.03426 0,6.06851 0,9.10276 0,3.64111 0,7.28221 0,10.92332 0,3.03425 0.2747,6.08096 0,9.10276 -0.9493,10.44212 -4.4183,20.516 -5.4617,30.94939 -0.2415,2.41535 0,4.8548 0,7.28221 0,6.0685 0,12.137 0,18.20552 0,9.7096 0,19.41922 0,29.12883 0,4.24796 0.3026,8.5067 0,12.74386 -0.3057,4.28019 -1.2534,8.49043 -1.8206,12.74387 -0.6465,4.84967 -0.9188,9.75563 -1.8205,14.56442 -0.9222,4.9185 -2.4274,9.70961 -3.6411,14.56442 -5.0374,20.14961 -2.0586,9.817 -9.1028,30.94938 -7.1012,21.30383 -3.4402,10.99444 -10.9232,30.94939 -1.8206,4.8548 -3.254,9.87299 -5.4617,14.56442 -8.1475,17.31337 -8.1122,11.59255 -12.7439,25.48773 -8.424,25.27191 0.2341,0.88401 -5.4616,23.66717 -0.9309,3.72347 -2.4275,7.28222 -3.6412,10.92332 -0.6068,1.82055 -1.2933,3.61646 -1.8205,5.46166 -0.6874,2.40583 -1.0293,4.90849 -1.8206,7.28221 -1.0334,3.10028 -2.5242,6.03152 -3.641,9.10276 -1.3117,3.60698 -2.2158,7.35976 -3.6411,10.92331 -1.008,2.51981 -2.6883,4.74109 -3.6412,7.28221 -0.8785,2.3428 -1.1332,4.87636 -1.8205,7.2822 -0.5272,1.8452 -1.5051,3.56874 -1.8206,5.46166 -0.2993,1.79578 0.2993,3.66588 0,5.46166 -0.3154,1.89292 -1.2137,3.6411 -1.8205,5.46165 -0.6068,1.82055 -1.1079,3.67989 -1.8206,5.46166 -0.5039,1.25991 -1.5544,2.31049 -1.8206,3.6411 -0.357,1.7852 0.3571,3.67647 0,5.46167 -0.266,1.3306 -1.2136,2.4274 -1.8204,3.6411 -1.2138,2.4274 -2.783,4.70755 -3.6412,7.28221 -0.9103,2.73082 1.8206,1.82055 0,5.46165 -0.2714,0.54279 -1.3914,-0.42911 -1.8205,0 -0.6391,0.63905 0.6287,7.84524 0,9.10276 -0.7449,1.4898 -4.3183,3.93708 -5.4617,5.46166 -1.3128,1.75042 -2.0939,3.91449 -3.6411,5.46166 -0.4291,0.42911 -1.2778,-0.2714 -1.8206,0 -0.7676,0.3838 -1.0529,1.43674 -1.8205,1.82055 -0.5428,0.27139 -1.3915,-0.42911 -1.8205,0 -3.7668,3.76679 5.7561,-0.14725 -1.8206,3.6411 -0.5428,0.27139 -1.2777,-0.27139 -1.8205,0 -0.7676,0.38381 -1.053,1.43675 -1.8206,1.82055 -0.5541,0.27703 -4.6418,0 -5.4617,0 -1.5777,0 -6.2276,0.35154 -7.2821,0 -1.2138,-0.60685 -2.4275,-1.2137 -3.6412,-1.82055 0,-0.60685 0.4292,-1.39144 0,-1.82055 -0.4291,-0.42911 -1.2777,0.27139 -1.8205,0 -0.7676,-0.38381 -1.053,-1.43674 -1.8206,-1.82055 -0.5428,-0.27139 -1.2777,0.27139 -1.8205,0 -0.7676,-0.38381 -1.2137,-1.21371 -1.8206,-1.82055 -0.6068,-0.60685 -1.4367,-1.05295 -1.8206,-1.82056 -0.2713,-0.54278 0.4292,-1.39144 0,-1.82055 -0.4291,-0.42911 -1.3914,0.42911 -1.8205,0 -0.4291,-0.42911 0.4291,-1.39145 0,-1.82055 -0.4291,-0.42911 -1.2778,0.27139 -1.8206,0 -0.7676,-0.38381 -1.0529,-1.43674 -1.8205,-1.82055 -0.5428,-0.27139 -1.3915,0.4291 -1.8205,0 -0.4291,-0.42911 0.2713,-1.27777 0,-1.82055 -0.3839,-0.76762 -1.2138,-1.21371 -1.8206,-1.82056 -0.6069,-0.60684 -1.0529,-1.43674 -1.8205,-1.82055 -0.5428,-0.27139 -1.3915,0.42911 -1.8206,0 -0.4291,-0.42911 0.4291,-1.39145 0,-1.82055 -0.8582,-0.85822 -2.5555,0.54278 -3.6411,0 -0.7676,-0.38381 -1.053,-1.43674 -1.8206,-1.82055 -0.5428,-0.27139 -1.2777,0.27139 -1.8205,0 -0.7676,-0.38381 -1.0529,-1.43675 -1.8206,-1.82055 -0.5427,-0.2714 -1.2137,0 -1.8205,0 -0.6069,0 -1.2137,0 -1.8205,0 -1.764,0 -9.8379,0.36184 -10.9234,0 -1.2873,-0.42912 -2.3538,-1.39145 -3.6411,-1.82056 -1.1514,-0.3838 -2.4274,0 -3.6411,0 -3.0343,0 -6.0685,0 -9.1028,0 -9.1027,0 -18.2055,0 -27.3082,0 -2.8946,0 -8.5335,0.47796 -10.9234,0 -1.3305,-0.26612 -2.3537,-1.39144 -3.64108,-1.82055 -0.57568,-0.1919 -1.27776,0.27139 -1.82056,0 -0.7676,-0.38381 -1.05288,-1.43675 -1.82048,-1.82055 -0.5428,-0.27139 -1.21376,0 -1.82056,0 -1.21376,0 -2.46368,0.29436 -3.64112,0 -1.31648,-0.32911 -2.35376,-1.39145 -3.64112,-1.82055 -4.74744,-1.58247 -9.91808,-1.78259 -14.5644,-3.64111 -0.79688,-0.31873 -1.21368,-1.2137 -1.82056,-1.82055 -2.42744,-0.60685 -4.81416,-1.40921 -7.28224,-1.82055 -1.78872,-0.29812 -7.54376,0.51967 -9.10272,0 -1.28736,-0.42911 -2.42744,-1.2137 -3.64112,-1.82055 -1.82056,0 -3.67648,0.35704 -5.46168,0 -1.33056,-0.26613 -2.35376,-1.39145 -3.64112,-1.82055 -0.57568,-0.19191 -1.2448,0.19189 -1.82048,0 -1.28736,-0.42912 -2.32472,-1.49145 -3.64112,-1.82056 -1.17752,-0.29436 -2.45096,0.23803 -3.64112,0 -1.88176,-0.37636 -3.59992,-1.35512 -5.46168,-1.82056 -3.00192,-0.75048 -6.12744,-0.97046 -9.10272,-1.82055 -1.3048,-0.37278 -2.32472,-1.49144 -3.64112,-1.82055 -1.17744,-0.29436 -2.46368,0.29437 -3.64112,0 -1.3164,-0.3291 -2.35376,-1.39144 -3.64112,-1.82055 -1.41296,-0.47098 -9.63632,0.25739 -10.92328,0 -1.33064,-0.26612 -2.32464,-1.49144 -3.64112,-1.82055 -1.17744,-0.29436 -2.42736,0 -3.64112,0 -3.64112,0 -7.28216,0 -10.92328,0 -5.46168,0 -10.92336,0 -16.38496,0 -1.21376,0 -2.42744,0 -3.64112,0 -1.21368,0 -2.46368,-0.29436 -3.64112,0 -1.3164,0.32911 -2.32464,1.49144 -3.64112,1.82055 -1.17744,0.29437 -2.42736,0 -3.64104,0 -1.21376,0 -2.42744,0 -3.64112,0 -4.248,0 -8.49592,0 -12.74392,0 -10.3164,0 -20.63288,0 -30.94935,0 -4.24796,0 -8.49591,0 -12.74387,0 -1.2137,0 -2.45097,-0.23803 -3.6411,0 -1.88177,0.37636 -3.5799,1.4442 -5.46166,1.82055 -1.19013,0.23803 -2.4274,0 -3.64111,0 -2.4274,0 -4.8548,0 -7.28221,0 -7.2822,0 -14.56441,0 -21.84662,0 -1.49012,0 -10.39062,-0.26634 -10.92331,0 -0.54279,0.27139 0.42911,1.39145 0,1.82055 -0.42911,0.42911 -1.24484,-0.19189 -1.82055,0 -1.28733,0.42911 -2.3105,1.55443 -3.64111,1.82055 -2.97533,0.59508 -6.1591,-0.73591 -9.10276,0 -2.63289,0.65823 -4.64932,2.98289 -7.28221,3.64112 -1.17746,0.29436 -2.4274,0 -3.6411,0 -1.2137,0 -2.42741,0 -3.6411,0 -5.46166,0 -10.92332,0 -16.38498,0 -1.2137,0 -2.4274,0 -3.6411,0 -1.2137,0 -2.46364,-0.29437 -3.64111,0 -1.31644,0.3291 -2.35377,1.39144 -3.6411,1.82055 -1.08555,0.36185 -9.15944,0 -10.92331,0 -2.41764,0 -11.12255,0.40533 -12.74387,0 -0.83259,-0.20815 -1.05293,-1.43675 -1.82055,-1.82055 -0.54278,-0.2714 -1.2137,0 -1.82055,0 -1.21371,0 -2.46364,0.29436 -3.64111,0 -1.31644,-0.32912 -2.35378,-1.39145 -3.6411,-1.82056 -0.57571,-0.1919 -1.2137,0 -1.82055,0 -1.21371,0 -2.42741,0 -3.64111,0 -4.8548,0 -9.70961,0 -14.56441,0 -1.21371,0 -2.46364,0.29436 -3.64111,0 -1.31644,-0.32911 -2.32466,-1.49144 -3.6411,-1.82056 -1.17746,-0.29436 -2.45098,0.23804 -3.6411,0 -6.03802,-1.2076 -4.24796,-1.69917 -9.10277,-3.6411 -1.78177,-0.7127 -3.59992,-1.35511 -5.46166,-1.82055 -1.17746,-0.29436 -2.48968,0.38381 -3.6411,0 -1.28732,-0.42911 -2.35378,-1.39144 -3.64111,-1.82055 -1.15141,-0.3838 -2.4274,0 -3.6411,0 -1.54454,0 -9.71544,0.30196 -10.92331,0 -1.31644,-0.32911 -2.3105,-1.55443 -3.64111,-1.82056 -3.5704,-0.71408 -7.3188,0.51494 -10.92331,0 -4.00047,-0.57149 -8.85336,-2.34426 -12.74386,-3.6411 -1.82055,-0.60685 -3.56874,-1.50506 -5.46166,-1.82055 -2.99297,-0.49883 -6.1591,0.73592 -9.10276,0 -1.31645,-0.32911 -2.32466,-1.49144 -3.64111,-1.82055 -1.17746,-0.29436 -2.4274,0 -3.6411,0 -1.2137,-0.60685 -2.35378,-1.39144 -3.64111,-1.82056 -0.5757,-0.1919 -1.27777,0.2714 -1.82055,0 -0.76761,-0.3838 -1.05294,-1.43674 -1.82055,-1.82055 -1.09655,-0.54827 -9.33205,0.53043 -10.92331,0 -1.28732,-0.4291 -2.4274,-1.21369 -3.64111,-1.82055 -1.82055,0 -3.67645,0.35704 -5.46165,0 -1.33061,-0.26612 -2.3105,-1.55443 -3.64111,-1.82055 -3.57039,-0.71408 -7.33175,0.59859 -10.92331,0 -3.78584,-0.63097 -7.15978,-2.8884 -10.92331,-3.64111 -1.19014,-0.23802 -2.42741,0 -3.64111,0 -1.2137,-0.60684 -2.35378,-1.39144 -3.6411,-1.82055 -1.52586,-0.50861 -6.07569,0.60327 -7.28221,0 -0.76761,-0.38381 -1.00637,-1.54916 -1.82055,-1.82055 -1.72713,-0.57571 -3.6411,0 -5.46166,0 -4.24796,0 -8.49591,0 -12.74387,0 -1.54453,0 -9.71544,-0.30197 -10.92331,0 -3.29509,-1.0973 -3.3859,2.94919 -5.46166,3.6411 -12.49792,4.16598 8.47993,-6.97079 -9.10276,1.82056 -1.53522,0.76761 -2.01275,3.09832 -3.6411,3.6411 -4.32634,1.44212 -3.30654,-2.15512 -7.28221,1.82055 -0.42911,0.42911 0.54279,1.54916 0,1.82055 -1.08557,0.54279 -2.55553,-0.54278 -3.6411,0 -0.54279,0.2714 0.54278,1.54916 0,1.82056 -1.08557,0.54278 -2.46364,-0.29436 -3.64111,0 -8.79134,2.19784 0.0902,0.86516 -5.46165,3.6411 -0.54279,0.27139 -1.21371,0 -1.82055,0 -1.82056,0 -3.73453,-0.5757 -5.46166,0 -0.57571,0.1919 0.27139,1.27777 0,1.82055 -0.38381,0.76762 -1.05294,1.43675 -1.82055,1.82055 -1.08557,0.54279 -2.55554,-0.54278 -3.64111,0 -0.76761,0.38381 -1.05294,1.43676 -1.82055,1.82056 -0.54278,0.27139 -1.39145,-0.42911 -1.82055,0 -0.42911,0.42911 0.4291,1.39144 0,1.82055 -7.10514,7.10513 -0.97773,-0.42141 -5.46166,1.82055 -0.76761,0.38381 -1.05294,1.43675 -1.82056,1.82055 -1.08556,0.54279 -2.55553,-0.54278 -3.6411,0 -7.5767,3.78835 1.94624,-0.12568 -1.82055,3.64111 -0.42911,0.42911 -1.2137,0 -1.82055,0 -0.60685,0 -1.2137,0 -1.82056,0 -8.4959,0 -16.99181,0 -25.48772,0 -4.85481,0 -9.70961,0 -14.56442,0 -1.29864,0 -7.75881,-0.33599 -9.10276,0 -1.86174,0.46544 -3.5799,1.4442 -5.46166,1.82056 -2.38026,0.47604 -4.8548,0 -7.2822,0 -6.67536,0 -13.35072,0 -20.02608,0 -0.76584,0 -10.38175,-0.2708 -10.92332,0 -0.7676,0.3838 -1.05293,1.43674 -1.82055,1.82055 -1.16337,0.58168 -5.81685,-0.48846 -7.28221,0 -1.28732,0.4291 -2.35377,1.39144 -3.6411,1.82055 -1.53278,0.51092 -8.01886,-0.54195 -9.10276,0 -0.76762,0.3838 -1.05294,1.43674 -1.82055,1.82055 -0.54279,0.27139 -1.39145,-0.42911 -1.82055,0 -0.42912,0.42911 0.54278,1.54916 0,1.82055 -0.42811,0.21405 -6.08625,0 -7.28221,0 -3.64111,0 -7.28221,0 -10.92331,0 -1.21371,0 -2.55554,0.54279 -3.64111,0 -0.54278,-0.27139 0.42911,-1.39144 0,-1.82055 -0.49814,-0.49814 -6.29458,0.49381 -7.28221,0 -0.76761,-0.38381 -1.00637,-1.54916 -1.82055,-1.82055 -1.15142,-0.38381 -2.42741,0 -3.6411,0 -1.21371,0 -2.42741,0 -3.64111,0 -6.06851,0 -12.13701,0 -18.20552,0 -2.4274,0 -4.90195,0.47605 -7.28221,0 -1.88176,-0.37636 -3.56874,-1.50507 -5.46166,-1.82055 -2.44432,-0.40739 -11.80326,0 -14.56441,0 -7.28221,0 -14.56442,0 -21.84663,0 -4.85481,0 -9.70961,0 -14.56442,0 -1.1963,0 -4.43451,-0.34239 -5.46166,0 -6.01043,2.00347 -1.27177,1.63762 -7.28221,3.6411 -1.15141,0.3838 -2.55553,-0.54278 -3.6411,0 -0.76761,0.3838 -1.05294,1.43675 -1.82055,1.82055 -1.08557,0.54279 -2.78289,-0.85821 -3.641106,0 -0.429104,0.42911 0.429112,1.39144 0,1.82056 -0.429104,0.4291 -1.213696,0 -1.820552,0 -2.4274,0 -4.887832,-0.39907 -7.282208,0 -1.89292,0.31548 -3.579888,1.4442 -5.461656,1.82055 -1.190136,0.23802 -2.463641,-0.29437 -3.641104,0 -1.316444,0.32911 -2.35378,1.39144 -3.641105,1.82055 -0.575709,0.1919 -1.277768,-0.27139 -1.820552,0 -0.767612,0.3838 -1.05294,1.43674 -1.820552,1.82055 -0.925201,0.4626 -9.418329,-0.37625 -10.923313,0 -1.316444,0.32911 -2.32466,1.49144 -3.641104,1.82055 -1.384469,0.34612 -7.578251,0 -9.102761,0 -5.461657,0 -10.923314,0 -16.38497,0 -0.606851,0 -1.213701,0 -1.820552,0 -0.606851,0 -1.391444,-0.42911 -1.820553,0 -0.429108,0.42911 0.429109,1.39144 0,1.82056 -0.429108,0.4291 -1.2137,0 -1.820552,0 -0.60685,0 -1.213701,0 -1.820552,0 -2.127676,0 -5.25814,0.4048 -7.282208,0 -2.45352,-0.49071 -4.854806,-1.21371 -7.2822092,-1.82056 z"
         style="fill:none;fill-rule:evenodd;stroke:#000000;stroke-width:0.80000001px;stroke-linecap:butt;stroke-linejoin:miter;stroke-opacity:1"
         inkscape:connector-curvature="0" />
    </clipPath>
    <linearGradient
       inkscape:collect="always"
       id="linearGradient1936-630">
      <stop
         style="stop-color:#c5b4ff;stop-opacity:1;opacity:1"
         offset="0"
         id="stop6188" />
      <stop
         id="stop6190"
         offset="0.4403238"
         style="stop-color:#6953b1;stop-opacity:1;opacity:1" />
      <stop
         style="stop-color:#352078;stop-opacity:1;opacity:1"
         offset="1"
         id="stop6192" />
    </linearGradient>
    <linearGradient
       id="linearGradient1010"
       inkscape:collect="always">
      <stop
         style="stop-color:#00ccff;stop-opacity:1"
         offset="0"
         id="stop1006" />
      <stop
         style="stop-color:#004f78;stop-opacity:1"
         offset="1"
         id="stop1008" />
    </linearGradient>
    <linearGradient
       id="linearGradient1936"
       inkscape:collect="always">
      <stop
         id="stop1932"
         offset="0"
         style="stop-color:#d2ffb4;stop-opacity:1" />
      <stop
         style="stop-color:#79b253;stop-opacity:1"
         offset="0.4403238"
         id="stop1938" />
      <stop
         id="stop1934"
         offset="1"
         style="stop-color:#447821;stop-opacity:1" />
    </linearGradient>
    <linearGradient
       inkscape:collect="always"
       xlink:href="#linearGradient1936-630"
       id="linearGradient1001"
       gradientUnits="userSpaceOnUse"
       gradientTransform="matrix(1.5999998,0,0,1.5999998,63.41752,1104.7414)"
       x1="254.71317"
       y1="244.03635"
       x2="254.71317"
       y2="260.73822" />
    <linearGradient
       inkscape:collect="always"
       xlink:href="#linearGradient1010"
       id="linearGradient1003"
       gradientUnits="userSpaceOnUse"
       gradientTransform="matrix(1.5999998,0,0,1.5999998,63.41752,1104.7414)"
       x1="254.71317"
       y1="244.03635"
       x2="254.71317"
       y2="260.73822" />
    <radialGradient
       inkscape:collect="always"
       xlink:href="#linearGradient2066"
       id="radialGradient1005"
       gradientUnits="userSpaceOnUse"
       gradientTransform="matrix(-2.3798877,0,6.8064854e-6,-0.13759279,1117.7213,1519.6978)"
       cx="265.61304"
       cy="235.70717"
       fx="265.61304"
       fy="235.70717"
       r="15.602902" />
    <radialGradient
       inkscape:collect="always"
       xlink:href="#linearGradient1936-630"
       id="radialGradient1007"
       gradientUnits="userSpaceOnUse"
       gradientTransform="matrix(0.56109701,2.0940424,-2.361539,0.63277253,505.70622,636.63246)"
       cx="348.4975"
       cy="104.00539"
       fx="348.4975"
       fy="104.00539"
       r="8.9917002" />
    <radialGradient
       inkscape:collect="always"
       xlink:href="#linearGradient1936-630"
       id="radialGradient1009"
       gradientUnits="userSpaceOnUse"
       gradientTransform="matrix(0.71099693,2.6534767,-2.7005066,0.72359863,489.03422,432.93857)"
       cx="351.37729"
       cy="108.58067"
       fx="351.37729"
       fy="108.58067"
       r="8.9917002" />
    <radialGradient
       inkscape:collect="always"
       xlink:href="#linearGradient1010"
       id="radialGradient1011"
       gradientUnits="userSpaceOnUse"
       gradientTransform="matrix(1.7739082,-0.47531728,-0.47531728,-1.7739082,-193.37948,1406.5742)"
       cx="350.66342"
       cy="-127.68843"
       fx="350.66342"
       fy="-127.68843"
       r="8.9917002" />
    <radialGradient
       inkscape:collect="always"
       xlink:href="#linearGradient1010"
       id="radialGradient1013"
       gradientUnits="userSpaceOnUse"
       gradientTransform="matrix(-0.71099693,-2.6534767,2.7005066,-0.72359863,452.87732,2476.7682)"
       cx="346.58969"
       cy="104.38092"
       fx="346.58969"
       fy="104.38092"
       r="8.9917002" />
    <radialGradient
       inkscape:collect="always"
       xlink:href="#linearGradient1936"
       id="radialGradient1015"
       gradientUnits="userSpaceOnUse"
       gradientTransform="matrix(-0.17438038,1.8407139,1.7519614,0.16597267,-773.36518,-1072.537)"
       cx="1290.7306"
       cy="830.64679"
       fx="1290.7306"
       fy="830.64679"
       r="33.984535" />
    <radialGradient
       inkscape:collect="always"
       xlink:href="#linearGradient1936"
       id="radialGradient1017"
       gradientUnits="userSpaceOnUse"
       gradientTransform="matrix(0.18229912,0.61245008,1.4559042,-0.43335784,-998.47128,1015.7367)"
       cx="1322.9012"
       cy="854.05096"
       fx="1322.9012"
       fy="854.05096"
       r="33.984535" />
    <radialGradient
       inkscape:collect="always"
       xlink:href="#linearGradient1936"
       id="radialGradient1019"
       gradientUnits="userSpaceOnUse"
       gradientTransform="matrix(1.0181497,0.24297619,-0.31975271,1.3398689,-595.86328,9.2588)"
       cx="1304.9282"
       cy="842.53143"
       fx="1304.9282"
       fy="842.53143"
       r="33.984535" />
    <radialGradient
       inkscape:collect="always"
       xlink:href="#linearGradient1936"
       id="radialGradient1021"
       gradientUnits="userSpaceOnUse"
       gradientTransform="matrix(1.2238679,0.3217794,-0.38648629,1.4699765,-805.98728,-191.65691)"
       cx="1296.5502"
       cy="819.25299"
       fx="1296.5502"
       fy="819.25299"
       r="33.984535" />
  </defs>
  <sodipodi:namedview
     id="base"
     pagecolor="#ffffff"
     bordercolor="#969696"
     borderopacity="1"
     inkscape:pageopacity="0.0"
     inkscape:pageshadow="2"
     inkscape:zoom="0.5431249"
     inkscape:cx="481.69097"
     inkscape:cy="449.4718"
     inkscape:document-units="px"
     inkscape:current-layer="layer2"
     showgrid="false"
     units="px"
     objecttolerance="8"
     gridtolerance="10"
     guidetolerance="10"
     inkscape:snap-perpendicular="true"
     inkscape:snap-tangential="true"
     inkscape:window-width="1920"
     inkscape:window-height="1017"
     inkscape:window-x="-8"
     inkscape:window-y="-8"
     inkscape:window-maximized="1"
     inkscape:object-paths="true"
     inkscape:snap-intersection-paths="true"
     inkscape:snap-smooth-nodes="true"
     inkscape:snap-midpoints="true"
     inkscape:snap-object-midpoints="true"
     inkscape:snap-center="true"
     inkscape:snap-bbox="true"
     showguides="true"
     inkscape:showpageshadow="false"
     inkscape:pagecheckerboard="false" />
  <metadata
     id="metadata5">
    <rdf:RDF>
      <cc:Work
         rdf:about="">
        <dc:format>image/svg+xml</dc:format>
        <dc:type
           rdf:resource="http://purl.org/dc/dcmitype/StillImage" />
        <dc:title></dc:title>
      </cc:Work>
    </rdf:RDF>
  </metadata>
  <g
     inkscape:label="guide"
     inkscape:groupmode="layer"
     id="layer1"
     transform="translate(0,-85.333443)" />
  <g
     inkscape:groupmode="layer"
     id="layer2"
     inkscape:label="Layer 2"
     style="display:inline"
     transform="translate(0,-1375.8334)">
    <g
       id="g2167"
       inkscape:export-xdpi="33.599998"
       inkscape:export-ydpi="33.599998"
       transform="translate(1437.57,1841.8264)"
       style="fill:#ffffff;stroke:#000000" />
    <path
       style="fill:none;stroke:none;stroke-width:2.64583325;stroke-miterlimit:4;stroke-dasharray:none;paint-order:stroke fill markers"
       d="m -4e-5,1375.8334 v 211.6667 h 264.5834 v -211.6667 z"
       id="path939"
       inkscape:connector-curvature="0" />
    <g
       id="g1074"
       transform="translate(-338.66686,2.288281)"
       inkscape:export-xdpi="959.98999"
       inkscape:export-ydpi="959.98999">
      <g
         id="g1047">
        <path
           inkscape:connector-curvature="0"
           style="font-style:normal;font-variant:normal;font-weight:normal;font-stretch:normal;font-size:31.49133301px;line-height:1.25;font-family:'Trajan Pro';-inkscape-font-specification:'Trajan Pro';text-align:center;letter-spacing:0px;word-spacing:0px;text-anchor:middle;fill:url(#linearGradient1001);fill-opacity:1;stroke:none;stroke-width:0.26458332"
           d="m 387.29882,1497.9363 c -0.126,0 -0.2518,0.4095 -0.3147,0.5984 -0.063,0.2519 -0.693,2.9598 -0.693,3.2748 0,0.1889 0.063,0.2837 0.1576,0.2837 0.126,0 0.2202,-0.063 0.3147,-0.3148 0.094,-0.2204 0.189,-0.4413 0.5354,-0.9766 0.5038,-0.7558 1.2597,-0.9762 3.2122,-1.0077 l 4.6607,-0.063 v 13.3212 c 0,3.0231 -10e-5,5.511 -0.1576,6.8337 -0.1259,0.9132 -0.2833,1.6057 -0.9132,1.7316 -0.2833,0.063 -0.6612,0.1261 -0.9446,0.1261 -0.189,0 -0.2522,0.095 -0.2522,0.1892 0,0.1889 0.1575,0.2516 0.5039,0.2516 0.9447,0 2.9287,-0.094 3.0861,-0.094 0.1575,0 2.1415,0.094 3.8737,0.094 0.3464,0 0.5038,-0.094 0.5038,-0.2516 0,-0.094 -0.063,-0.1892 -0.2522,-0.1892 -0.2834,0 -0.976,-0.063 -1.4169,-0.1261 -0.9447,-0.1259 -1.1339,-0.8184 -1.2284,-1.7316 -0.1574,-1.3227 -0.1571,-3.8106 -0.1571,-6.8337 v -13.3212 l 3.9677,0.063 c 3.0231,0.063 3.7787,0.7874 3.8732,1.7322 l 0.031,0.3462 c 0.032,0.4409 0.095,0.5354 0.2522,0.5354 0.1259,0 0.2206,-0.1259 0.2206,-0.4093 0,-0.3464 0.093,-2.5191 0.093,-3.4639 0,-0.1889 0,-0.3777 -0.157,-0.3777 -0.126,0 -0.4098,0.094 -0.8822,0.1571 -0.5038,0.094 -1.2278,0.1576 -2.2355,0.1576 h -11.8091 c -0.3779,0 -1.575,-0.063 -2.4882,-0.1576 -0.8503,-0.063 -1.1651,-0.3778 -1.3855,-0.3778 z m 37.4928,3.6215 c -0.1575,0 -0.2832,0.1889 -0.3147,0.4723 l -2.0159,17.4775 c -0.126,1.0077 -0.1569,1.984 -1.0702,2.1415 -0.4094,0.063 -0.5986,0.094 -0.8191,0.094 -0.1574,0 -0.2832,0.095 -0.2832,0.1892 0,0.1889 0.1889,0.2516 0.4723,0.2516 0.7558,0 2.0782,-0.094 2.3301,-0.094 0.2205,0 1.5431,0.094 2.5823,0.094 0.3149,0 0.5038,-0.063 0.5038,-0.2516 0,-0.094 -0.1257,-0.1892 -0.2201,-0.1892 -0.189,0 -0.5983,-0.032 -1.0708,-0.1576 -0.4092,-0.094 -0.6614,-0.3461 -0.6614,-0.7555 0,-0.4409 0,-0.9445 0.032,-1.3539 l 1.0708,-12.0928 h 0.1261 c 0.4724,1.1022 2.7081,5.6055 3.5269,7.306 0.6928,1.4486 2.5194,4.8811 3.2437,6.2038 0.5354,0.9762 0.6927,1.2278 0.9446,1.2278 0.252,0 0.4094,-0.2518 0.9762,-1.417 l 6.6761,-13.6674 h 0.063 l 1.3229,13.6044 c 0.063,0.5038 0.032,0.9131 -0.1261,0.9446 -0.1259,0.032 -0.1892,0.1262 -0.1892,0.2207 0,0.1259 0.1262,0.2202 0.7876,0.2832 1.0077,0.094 4.0938,0.1261 4.7237,0.1261 0.3149,0 0.5669,-0.094 0.5669,-0.2517 0,-0.126 -0.094,-0.1891 -0.2207,-0.1891 -0.2834,0 -1.0079,2e-4 -1.7952,-0.2517 -1.1336,-0.3779 -1.3224,-1.8267 -1.417,-2.7714 l -1.8898,-16.4698 c -0.063,-0.5039 -0.2208,-0.7245 -0.4098,-0.7245 -0.1889,0 -0.3148,0.1889 -0.4407,0.4408 l -8.0616,16.5959 -8.3767,-16.6274 c -0.1574,-0.3149 -0.378,-0.4093 -0.5669,-0.4093 z m 37.6266,0.1576 c -0.126,0 -0.2517,0.094 -0.3777,0.1256 -0.2204,0.032 -0.7246,0.1261 -1.2599,0.1576 -0.6299,0.032 -6.4241,0 -6.613,0 -0.1575,0 -1.9526,-0.063 -3.2122,-0.063 -0.315,0 -0.4408,0.063 -0.4408,0.2207 0,0.094 0.1261,0.2201 0.2206,0.2201 0.252,0 0.7242,0.032 0.9447,0.063 0.9132,0.126 1.0708,0.5668 1.1338,1.48 0.063,0.8503 0.063,1.6061 0.063,5.763 v 4.7237 c 0,2.5823 0,4.6923 -0.1571,5.7945 -0.126,0.7873 -0.1892,1.3225 -0.7245,1.4169 -0.252,0.032 -0.5982,0.1261 -0.8501,0.1261 -0.1574,0 -0.2206,0.1262 -0.2206,0.2207 0,0.1575 0.1574,0.2201 0.4408,0.2201 0.4409,0 1.0708,-0.032 1.6061,-0.063 0.5983,-0.032 1.1338,-0.031 1.1968,-0.031 0.4094,0 1.134,-5e-4 2.2991,0.062 1.1337,0.032 2.7394,0.095 4.8178,0.095 1.0707,0 1.354,2e-4 1.543,-0.6925 0.1575,-0.5668 0.3783,-2.3938 0.3783,-2.5828 0,-0.1889 -0.032,-0.4092 -0.1891,-0.4092 -0.1574,0 -0.2202,0.094 -0.2832,0.4092 -0.1574,1.0707 -0.5356,1.5434 -1.2599,1.8583 -0.7243,0.2834 -2.0471,0.2832 -2.7714,0.2832 -2.7397,0 -3.2433,-0.3465 -3.3063,-2.1415 -0.032,-0.5353 0,-3.6529 0,-4.5661 v -2.2355 c 0,-0.094 0.032,-0.1892 0.1887,-0.1892 0.4724,0 3.4325,0.032 4.1883,0.1261 1.0707,0.126 1.3226,0.4407 1.417,0.8186 0.126,0.3464 0.1261,0.6297 0.1261,0.8816 0,0.1574 0.063,0.2522 0.1891,0.2522 0.1889,0 0.2517,-0.2834 0.2517,-0.5039 0,-0.1889 0.063,-1.1968 0.1261,-1.7322 0.063,-0.8817 0.2207,-1.3225 0.2207,-1.48 0,-0.1574 -0.063,-0.2201 -0.1577,-0.2201 -0.094,0 -0.2203,0.1573 -0.4092,0.3462 -0.2835,0.2834 -0.6932,0.3148 -1.3545,0.3778 -0.6298,0.063 -4.2828,0.063 -4.6292,0.063 -0.1575,0 -0.1571,-0.094 -0.1571,-0.2832 v -7.2745 c 0,-0.1889 0.032,-0.2837 0.1571,-0.2837 0.315,0 3.5274,0.032 3.9998,0.095 1.5116,0.1889 1.7949,0.3777 1.9839,0.8185 0.1259,0.315 0.1576,0.7557 0.1576,0.9447 0,0.2204 0.063,0.3467 0.2201,0.3467 0.126,0 0.2207,-0.1577 0.2522,-0.2837 0.063,-0.3149 0.1256,-1.5112 0.1571,-1.7632 0.063,-0.7558 0.2206,-1.0709 0.2206,-1.2598 0,-0.126 -0.032,-0.2517 -0.126,-0.2517 z m -52.4484,0.2201 c -0.3149,0 -0.4408,0.063 -0.4408,0.2207 0,0.094 0.094,0.2201 0.2206,0.2201 0.1889,0 0.5352,0.032 0.8501,0.095 0.5984,0.126 0.8191,0.5353 0.8821,1.4485 0.063,0.8503 0.063,1.6061 0.063,5.763 v 4.7237 c 0,2.5823 -0.032,4.6923 -0.1576,5.7945 -0.095,0.7873 -0.1891,1.291 -0.7245,1.4169 -0.2519,0.063 -0.598,0.1261 -0.8501,0.1261 -0.1574,0 -0.2206,0.1262 -0.2206,0.2207 0,0.1575 0.1574,0.2201 0.4408,0.2201 0.8502,0 2.5825,-0.094 2.7399,-0.094 0.126,0 1.9207,0.094 3.4638,0.094 0.315,0 0.4408,-0.094 0.4408,-0.2201 0,-0.094 -0.063,-0.2207 -0.2201,-0.2207 -0.2519,0 -0.85,-0.063 -1.2593,-0.1261 -0.8188,-0.1259 -0.9137,-0.6296 -1.0082,-1.4169 -0.1259,-1.1022 -0.1256,-3.2122 -0.1256,-5.7945 v -4.7237 c 0,-4.1569 0,-4.9127 0.032,-5.763 0.063,-0.9447 0.2204,-1.3226 0.9762,-1.48 0.3149,-0.063 0.5034,-0.063 0.6925,-0.063 0.095,0 0.2206,-0.1256 0.2206,-0.2201 0,-0.1575 -0.1259,-0.2207 -0.4408,-0.2207 -0.8503,0 -2.6454,0.063 -2.7714,0.063 -0.1574,0 -1.8897,-0.063 -2.8029,-0.063 z"
           id="path941" />
        <path
           inkscape:connector-curvature="0"
           style="font-style:normal;font-variant:normal;font-weight:normal;font-stretch:normal;font-size:31.49133301px;line-height:1.25;font-family:'Trajan Pro';-inkscape-font-specification:'Trajan Pro';text-align:center;letter-spacing:0px;word-spacing:0px;text-anchor:middle;fill:url(#linearGradient1003);fill-opacity:1;stroke:none;stroke-width:0.26458332"
           d="m 465.49762,1498.3771 c -0.3149,0 -0.5038,0.063 -0.5038,0.2207 0,0.1889 0.1258,0.2201 0.2832,0.2201 0.2205,0 1.0082,0.032 1.4175,0.1891 0.8187,0.315 1.2277,0.7872 1.7316,2.4562 l 5.6054,18.6743 c 0.6298,2.1414 0.7873,2.4877 1.1022,2.4877 0.3779,0 0.5355,-0.346 1.0393,-1.6686 1.1336,-2.9287 5.4483,-14.4864 6.582,-17.5095 h 0.063 l 6.1722,17.541 c 0.4409,1.2282 0.6298,1.6371 0.9447,1.6371 0.3464,0 0.5036,-0.3775 1.3224,-2.7078 1.2281,-3.527 4.4089,-13.5417 5.7945,-17.5411 0.5983,-1.732 1.1022,-3.0544 2.0469,-3.4008 0.3464,-0.1259 0.9448,-0.1576 1.0707,-0.1576 0.189,0 0.2837,-0.094 0.2837,-0.2517 0,-0.1259 -0.1574,-0.1891 -0.4408,-0.1891 -0.9763,0 -2.3308,0.095 -2.5512,0.095 -0.2835,0 -1.6057,-0.095 -3.2117,-0.095 -0.3779,0 -0.5354,0.063 -0.5354,0.2207 0,0.1259 0.1258,0.2201 0.2832,0.2201 1.4486,0 1.7952,0.3778 1.7952,0.9446 0,0.4094 -0.032,0.8508 -0.3467,2.0159 -1.1022,4.0309 -3.9991,13.1634 -4.8493,16.0606 h -0.1261 l -6.2668,-17.8873 c -0.3779,-1.0707 -0.5671,-1.48 -0.7876,-1.48 -0.1889,0 -0.3147,0.1573 -0.787,1.4485 l -6.6761,17.9818 h -0.063 c -0.4724,-1.669 -3.7476,-13.2265 -4.22,-15.242 -0.3148,-1.3856 -0.5984,-2.4881 -0.5984,-2.8975 0,-0.4093 0.2204,-0.661 0.4093,-0.7555 0.3779,-0.1889 0.9765,-0.1891 1.2284,-0.1891 0.1574,0 0.3147,-0.031 0.3147,-0.2201 0,-0.126 -0.1256,-0.2207 -0.5664,-0.2207 -1.5746,0 -2.9602,0.095 -3.2437,0.095 -0.3464,0 -2.0786,-0.095 -3.7161,-0.095 z m 42.3261,3.0546 c -0.189,0 -0.3145,0.1575 -0.6609,1.0392 l -6.519,16.7535 c -0.5354,1.3541 -1.0704,2.2987 -2.3301,2.4562 -0.2204,0.032 -0.6301,0.063 -0.8191,0.063 -0.1259,0 -0.2516,0.095 -0.2516,0.2207 0,0.1575 0.1889,0.2201 0.5354,0.2201 1.1336,0 2.519,-0.094 2.8024,-0.094 0.3149,0 1.8264,0.094 2.4877,0.094 0.2519,0 0.4098,-0.063 0.4098,-0.2201 0,-0.126 -0.063,-0.2207 -0.2837,-0.2207 h -0.2517 c -0.4723,0 -0.9447,-0.1886 -0.9447,-0.724 0,-0.4723 0.1573,-1.1339 0.4093,-1.7952 l 1.5746,-4.2829 c 0.063,-0.1575 0.1572,-0.2202 0.2832,-0.2202 h 6.3929 c 0.1575,0 0.1887,0.031 0.2516,0.1571 l 2.4883,6.1412 c 0.1889,0.4409 -0.094,0.6611 -0.2522,0.724 -0.1259,0.063 -0.1886,0.063 -0.1886,0.1892 0,0.1574 0.4408,0.1571 0.9761,0.1886 1.921,0.063 3.9676,0.063 4.377,0.063 0.3149,0 0.63,-0.063 0.63,-0.2201 0,-0.1575 -0.1888,-0.2207 -0.3463,-0.2207 -0.2834,0 -0.6928,-0.032 -1.1022,-0.1576 -0.5983,-0.1889 -1.3545,-0.5351 -2.3621,-2.9285 -1.7007,-4.0624 -6.1407,-15.1159 -6.6446,-16.2496 -0.2834,-0.5984 -0.3781,-0.9762 -0.6615,-0.9762 z m 12.8184,0.5038 c -0.3149,0 -0.4408,0.063 -0.4408,0.2207 0,0.094 0.1261,0.2201 0.2206,0.2201 0.2519,0 0.7243,0.032 0.9447,0.063 0.9133,0.126 1.0708,0.5668 1.1338,1.48 0.063,0.8503 0.063,1.6061 0.063,5.763 v 4.7237 c 0,2.5823 -2e-4,4.6923 -0.1576,5.7945 -0.126,0.7873 -0.1887,1.291 -0.724,1.4169 -0.252,0.063 -0.5987,0.1261 -0.8506,0.1261 -0.1575,0 -0.2201,0.1262 -0.2201,0.2207 0,0.1575 0.1574,0.2201 0.4408,0.2201 0.8503,0 2.7083,-0.094 2.7398,-0.094 0.1259,0 1.8894,0.094 3.4009,0.094 0.3149,0 0.4408,-0.094 0.4408,-0.2201 0,-0.094 -0.031,-0.2207 -0.2202,-0.2207 -0.252,0 -0.8504,-0.063 -1.2283,-0.1261 -0.8503,-0.1259 -1.0078,-0.6296 -1.1023,-1.4169 -0.126,-1.1022 -0.1261,-3.1807 -0.1261,-5.763 v -0.6299 c 0,-0.1575 0.063,-0.2202 0.1892,-0.2202 l 3.5269,0.063 c 0.189,0 0.2518,0.031 0.3777,0.1571 0.5984,0.7243 1.8269,2.4566 2.9921,3.9052 1.5746,2.0154 2.5819,3.3063 3.7786,3.9362 0.6928,0.3779 1.386,0.5353 2.9605,0.5353 h 1.7317 c 0.5038,0 0.6615,-0.063 0.6615,-0.2201 0,-0.094 -0.094,-0.2207 -0.2517,-0.2207 -0.1575,0 -0.4413,-10e-5 -0.9767,-0.094 -0.6928,-0.094 -1.606,-0.3462 -3.0861,-1.8578 -1.6061,-1.669 -3.5267,-4.094 -5.794,-6.9283 2.5823,-2.2044 3.4009,-4.1252 3.4009,-6.1091 0,-1.858 -1.228,-3.1492 -1.9209,-3.6531 -1.4486,-1.0077 -3.401,-1.1653 -5.1645,-1.1653 -0.8503,0 -3.1809,0.063 -3.4644,0.063 -0.1574,0 -2.0155,-0.063 -3.2752,-0.063 z m 21.1584,0 c -0.3149,0 -0.4408,0.063 -0.4408,0.2207 0,0.094 0.1262,0.2201 0.2206,0.2201 0.252,0 0.7242,0.032 0.9447,0.063 0.9132,0.126 1.0707,0.5668 1.1337,1.48 0.063,0.8503 0.063,1.6061 0.063,5.763 v 4.7237 c 0,2.5823 0,4.6923 -0.1571,5.7945 -0.126,0.7873 -0.1892,1.291 -0.7245,1.4169 -0.2519,0.063 -0.5982,0.1261 -0.8501,0.1261 -0.1574,0 -0.2206,0.1262 -0.2206,0.2207 0,0.1575 0.1578,0.2201 0.4413,0.2201 0.8502,0 2.6448,-0.094 2.7393,-0.094 0.126,0 1.9528,0.094 3.4644,0.094 0.3149,0 0.4408,-0.094 0.4408,-0.2201 0,-0.094 -0.063,-0.2207 -0.2206,-0.2207 -0.2519,0 -0.8505,-0.063 -1.2284,-0.1261 -0.8502,-0.1259 -1.0072,-0.6296 -1.1017,-1.4169 -0.1259,-1.1022 -0.1261,-3.2122 -0.1261,-5.7945 v -10.896 c 0,-0.2834 0.063,-0.4723 0.2201,-0.5038 0.2834,-0.063 1.0707,-0.1886 1.5431,-0.1886 0.6298,0 2.2989,-0.1578 3.7475,1.2908 1.4801,1.4486 1.5746,3.1806 1.5746,4.0623 0,2.4249 -2.1413,4.3145 -5.133,4.3145 -0.5668,0 -0.7245,0.063 -0.7245,0.2832 0,0.1259 0.1578,0.2522 0.2837,0.2522 0.1575,0.031 0.6296,0.032 0.787,0.032 4.2514,0 7.149,-2.551 7.149,-6.3929 0,-1.4486 -0.7561,-2.6454 -1.386,-3.2122 -0.4723,-0.4094 -1.7321,-1.5116 -5.2906,-1.5116 -1.2597,0 -3.3379,0.063 -3.9362,0.063 -0.2205,0 -1.9526,-0.063 -3.2122,-0.063 z m -14.6395,0.9447 c 2.9603,0 4.7868,1.921 4.7868,5.2591 0,2.0469 -0.7244,3.464 -1.6691,4.0938 -0.6613,0.4409 -1.4171,0.4728 -2.0784,0.4728 -1.2282,0 -2.6452,-0.1893 -3.0546,-0.4097 -0.126,-0.095 -0.1892,-0.1888 -0.1892,-0.3463 v -8.5969 c 0,-0.1574 0.094,-0.2522 0.2207,-0.3152 0.2834,-0.063 1.1651,-0.1576 1.9838,-0.1576 z m -19.7931,2.9052 c 0.079,0 0.1575,0.1023 0.2362,0.307 l 2.7394,7.3375 c 0.032,0.126 0.032,0.1892 -0.094,0.1892 h -5.6064 c -0.094,0 -0.126,-0.063 -0.094,-0.1892 l 2.5823,-7.3375 c 0.079,-0.2047 0.1574,-0.307 0.2361,-0.307 z"
           id="path943" />
      </g>
      <path
         style="fill:url(#radialGradient1005);fill-opacity:1;stroke:none;stroke-width:0.52916664;stroke-linecap:butt;stroke-linejoin:miter;stroke-miterlimit:4;stroke-dasharray:none;stroke-opacity:1;paint-order:markers stroke fill"
         d="m 502.76062,1487.2662 c 0,1.1857 -8.3037,2.1468 -18.5467,2.1468 -10.2429,0 -38.9607,-0.9611 -38.9608,-2.1468 0,-1.1857 28.7178,-2.1468 38.9608,-2.1468 10.2431,0 18.5467,0.9611 18.5467,2.1468 z"
         id="path949"
         inkscape:connector-curvature="0"
         sodipodi:nodetypes="cscsc" />
      <path
         inkscape:connector-curvature="0"
         style="fill:url(#radialGradient1007);fill-opacity:1;stroke:none;stroke-width:0.52916664;stroke-linecap:butt;stroke-linejoin:miter;stroke-miterlimit:4;stroke-dasharray:none;stroke-opacity:1;paint-order:markers stroke fill"
         d="m 468.01812,1427.8369 a 17.025993,17.025993 0 0 1 0,24.0784 17.025993,17.025993 0 0 1 -24.0784,0 17.025993,17.025993 0 0 1 0,-24.0784 17.025993,17.025993 0 0 1 24.0784,0 z"
         id="path951" />
      <path
         inkscape:connector-curvature="0"
         style="fill:url(#radialGradient1009);fill-opacity:1;stroke:none;stroke-width:0.52916664;stroke-linecap:butt;stroke-linejoin:miter;stroke-miterlimit:4;stroke-dasharray:none;stroke-opacity:1;paint-order:markers stroke fill"
         d="m 443.93582,1427.8408 c -0.01,0.01 -0.015,0.019 -0.024,0.027 -0.3375,0.3388 -0.6552,0.6963 -0.9604,1.0642 -0.2286,0.2737 -0.4485,0.5545 -0.6595,0.842 -1.4509,2.0036 -2.4478,4.3373 -2.87,6.7752 -0.5172,2.9875 -0.1763,6.1167 0.9666,8.9249 0.8128,1.9966 2.0263,3.8313 3.5557,5.3505 2.0979,2.0809 4.7552,3.5439 7.5564,4.4843 2.1921,0.7359 4.4744,1.1612 6.7759,1.4163 3.0117,-0.4084 5.8591,-1.6156 8.2467,-3.4962 0.019,-0.043 0.035,-0.087 0.053,-0.1293 3e-4,0.032 -0.01,0.064 -0.01,0.096 0.5072,-0.3989 1.3656,-0.4521 1.8244,-0.9059 2.6261,-2.6333 3.9439,-6.4281 4.4429,-10.1135 -0.255,-2.3046 -0.6801,-4.5909 -1.4172,-6.7862 -0.9402,-2.8012 -2.4023,-5.4595 -4.4841,-7.5564 -1.5173,-1.5314 -3.3538,-2.743 -5.3506,-3.5557 -2.8082,-1.1429 -5.9374,-1.4839 -8.925,-0.9665 -2.3671,0.4098 -4.6327,1.3665 -6.5966,2.7496 -0.169,0.1199 -0.3357,0.2428 -0.5002,0.3688 -0.1783,0.1359 -0.3554,0.2739 -0.528,0.4172 -0.3686,0.3063 -0.724,0.6281 -1.0655,0.9645 2.52,-2.1778 5.5189,-3.1017 8.5853,-3.1192 2.1874,-0.013 4.4344,0.3933 6.4547,1.2324 2.0203,0.839 3.8416,2.1763 5.183,3.9044 1.6477,2.1225 2.526,4.749 3.0341,7.3875 0.8587,4.4604 0.7207,9.1078 -0.3811,13.5136 -4.4062,1.1021 -9.0546,1.2415 -13.5151,0.3826 -2.6386,-0.508 -5.2643,-1.387 -7.3869,-3.0347 -1.728,-1.3414 -3.066,-3.1621 -3.9051,-5.1824 -0.8391,-2.0202 -1.2441,-4.2678 -1.2316,-6.4554 0.017,-3.0718 0.9441,-6.0763 3.1302,-8.599 z"
         id="path953"
         sodipodi:nodetypes="cccccccccccccccccccccccsccccccccc" />
      <path
         inkscape:connector-curvature="0"
         style="fill:url(#radialGradient1011);fill-opacity:1;stroke:none;stroke-width:0.52916664;stroke-linecap:butt;stroke-linejoin:miter;stroke-miterlimit:4;stroke-dasharray:none;stroke-opacity:1;paint-order:markers stroke fill"
         d="m 497.97232,1457.7909 a 17.025993,17.025993 0 0 0 -24.0784,0 17.025993,17.025993 0 0 0 0,24.0784 17.025993,17.025993 0 0 0 24.0784,0 17.025993,17.025993 0 0 0 0,-24.0784 z"
         id="path955" />
      <path
         inkscape:connector-curvature="0"
         id="path957"
         d="m 497.97562,1481.866 c 0.01,-0.01 0.015,-0.019 0.024,-0.027 0.3375,-0.3389 0.655,-0.6963 0.9604,-1.0642 0.2286,-0.2737 0.4485,-0.5545 0.6595,-0.8421 1.4509,-2.0035 2.4478,-4.3372 2.87,-6.7752 0.5173,-2.9874 0.1762,-6.1165 -0.9667,-8.9248 -0.8127,-1.9967 -2.0263,-3.8313 -3.5556,-5.3506 -2.0979,-2.0809 -4.7552,-3.5439 -7.5564,-4.4842 -2.1922,-0.736 -4.4746,-1.1613 -6.7759,-1.4163 -3.0116,0.4084 -5.8591,1.6156 -8.2467,3.4961 -0.019,0.043 -0.035,0.087 -0.053,0.1294 3e-4,-0.032 0.01,-0.063 0.01,-0.096 -0.5073,0.3988 -1.3657,0.452 -1.8244,0.9059 -2.6262,2.6332 -3.944,6.428 -4.4429,10.1134 0.255,2.3046 0.68,4.5909 1.417,6.7862 0.9404,2.8012 2.4025,5.4595 4.4843,7.5564 1.5172,1.5314 3.3538,2.743 5.3504,3.5557 2.8084,1.1429 5.9374,1.4839 8.925,0.9666 2.3672,-0.4099 4.6328,-1.3666 6.5967,-2.7497 0.169,-0.1199 0.3358,-0.2428 0.5003,-0.3688 0.1781,-0.1359 0.3554,-0.2739 0.5279,-0.4172 0.3685,-0.3063 0.724,-0.6281 1.0654,-0.9645 -2.5199,2.1778 -5.5189,3.1018 -8.5851,3.1192 -2.1876,0.013 -4.4346,-0.3933 -6.4548,-1.2324 -2.0203,-0.839 -3.8417,-2.1763 -5.1831,-3.9044 -1.6476,-2.1225 -2.5259,-4.749 -3.034,-7.3875 -0.8588,-4.4604 -0.7207,-9.1078 0.3811,-13.5136 4.4062,-1.1021 9.0546,-1.2415 13.5152,-0.3827 2.6385,0.5081 5.2642,1.3871 7.3868,3.0348 1.7279,1.3414 3.066,3.1621 3.9051,5.1824 0.8391,2.0202 1.2441,4.2678 1.2316,6.4554 -0.017,3.0718 -0.944,6.0763 -3.1302,8.599 z"
         style="fill:url(#radialGradient1013);fill-opacity:1;stroke:none;stroke-width:0.52916664;stroke-linecap:butt;stroke-linejoin:miter;stroke-miterlimit:4;stroke-dasharray:none;stroke-opacity:1;paint-order:markers stroke fill"
         sodipodi:nodetypes="ccccccccccccccccccccccccccccccccc" />
      <path
         inkscape:connector-curvature="0"
         style="opacity:1;fill:url(#radialGradient1015);fill-opacity:1;stroke:none;stroke-width:0.26458332px;stroke-linecap:butt;stroke-linejoin:miter;stroke-opacity:1"
         d="m 443.94902,1427.8276 c -2.2978,2.6447 -3.271,5.7961 -3.2893,9.0184 -0.013,2.2909 0.411,4.6441 1.2897,6.7599 0.8787,2.1157 2.2801,4.0232 4.0899,5.428 2.2227,1.7255 4.973,2.6459 7.7362,3.178 9.572,1.1168 18.2235,-1.4405 27.185,-0.7957 3.0861,0.227 6.174,0.6847 9.1076,1.6695 2.9336,0.9848 5.7174,2.5158 7.9133,4.696 1.6035,1.5894 2.8728,3.512 3.7239,5.6031 1.1969,2.9409 1.554,6.2183 1.0122,9.347 -0.594,3.4311 -2.2728,6.667 -4.7361,9.1283 2.2977,-2.6447 3.2711,-5.796 3.2894,-9.0183 0.013,-2.291 -0.411,-4.6442 -1.2897,-6.76 -0.8788,-2.1157 -2.2802,-4.0232 -4.0899,-5.428 -2.2229,-1.7254 -4.9731,-2.6458 -7.7362,-3.1779 -9.572,-1.1169 -18.2235,1.4405 -27.1851,0.7957 -3.0861,-0.2271 -6.174,-0.6848 -9.1075,-1.6696 -2.9336,-0.9848 -5.7174,-2.5158 -7.9134,-4.696 -1.6034,-1.5893 -2.8728,-3.512 -3.7239,-5.603 -1.1969,-2.941 -1.5539,-6.2184 -1.0122,-9.347 0.5941,-3.4311 2.2727,-6.6669 4.7361,-9.1284 z"
         id="path959"
         sodipodi:nodetypes="cccccccccsccccccccccc" />
      <path
         id="path961"
         d="m 440.26135,1435.0407 c -0.0713,0.5987 -0.14572,1.1968 -0.14915,1.8009 -0.0136,2.3604 0.42157,4.7811 1.33141,6.9716 0.91299,2.1984 2.36968,4.1823 4.26054,5.65 2.32068,1.8015 5.15552,2.7413 7.96738,3.2828 a 0.54556747,0.54556747 0 0 0 0.039,0.01 c 9.70481,1.1323 18.3763,-1.4284 27.20981,-0.7927 3.05859,0.225 6.10084,0.678 8.97274,1.6421 2.87067,0.9636 5.58075,2.458 7.70363,4.5658 1.54958,1.5354 2.77941,3.3995 3.60321,5.4234 1.15788,2.8451 1.50308,6.0215 0.97916,9.0474 -0.11833,0.6837 -0.30984,1.3516 -0.51509,2.015 0.0718,-0.601 0.14703,-1.2013 0.15049,-1.8078 0.0137,-2.3604 -0.42005,-4.7822 -1.32992,-6.9731 -0.91307,-2.1983 -2.36983,-4.1821 -4.26061,-5.6499 -2.32075,-1.8015 -5.15552,-2.7413 -7.96738,-3.2828 a 0.54556747,0.54556747 0 0 0 -0.0391,-0.01 c -9.70478,-1.1324 -18.37624,1.4282 -27.20974,0.7926 -3.05868,-0.2251 -6.101,-0.6779 -8.9728,-1.642 -2.87068,-0.9636 -5.58074,-2.458 -7.70364,-4.5658 -1.54975,-1.5356 -2.7809,-3.3985 -3.60455,-5.4221 -1.15786,-2.8449 -1.50174,-6.0229 -0.97782,-9.0488 0.11788,-0.6808 0.30834,-1.346 0.51234,-2.0066 z"
         style="fill:url(#radialGradient1017);fill-opacity:1;stroke:none;stroke-width:0.26458332px;stroke-linecap:butt;stroke-linejoin:miter;stroke-opacity:1"
         inkscape:connector-curvature="0" />
      <path
         id="path963"
         d="m 472.80582,1451.5266 -2.6316,6.5496 c 1.491,-0.125 2.9855,-0.2699 4.4886,-0.4093 0.2345,-2.9545 0.2418,-5.4726 0.2364,-6.2707 -0.6977,0.036 -1.3954,0.078 -2.0934,0.1304 z"
         style="fill:#50852c;fill-opacity:1;stroke:none;stroke-width:0.26458332px;stroke-linecap:butt;stroke-linejoin:miter;stroke-opacity:1"
         inkscape:connector-curvature="0" />
      <path
         id="path965"
         d="m 472.57782,1452.0952 -2.1727,5.4058 c 1.4257,-0.123 2.8582,-0.2622 4.3023,-0.3953 0.1553,-2.1925 0.1857,-4.0874 0.1897,-5.1607 -0.7721,0.041 -1.5447,0.089 -2.3193,0.1502 z"
         style="fill:#6fa749;fill-opacity:1;stroke:none;stroke-width:0.26458332px;stroke-linecap:butt;stroke-linejoin:miter;stroke-opacity:1"
         inkscape:connector-curvature="0" />
      <path
         inkscape:connector-curvature="0"
         style="fill:url(#radialGradient1019);fill-opacity:1;stroke:none;stroke-width:0.26458332px;stroke-linecap:butt;stroke-linejoin:miter;stroke-opacity:1"
         d="m 443.93942,1427.8372 c 2.6447,-2.2978 5.7962,-3.2711 9.0184,-3.2893 2.2909,-0.013 4.6442,0.4109 6.7599,1.2897 2.1157,0.8787 4.0233,2.2801 5.428,4.0898 1.7255,2.2228 2.6459,4.9731 3.178,7.7362 1.1168,9.5721 -1.4405,18.2236 -0.7957,27.1851 0.227,3.0861 0.6848,6.174 1.6695,9.1075 0.9848,2.9336 2.5158,5.7175 4.696,7.9134 1.5894,1.6035 3.5121,2.8728 5.6031,3.7239 2.941,1.1969 6.2183,1.5539 9.3471,1.0122 3.431,-0.5941 6.667,-2.2728 9.1282,-4.7361 -2.6446,2.2977 -5.796,3.271 -9.0182,3.2893 -2.2911,0.013 -4.6443,-0.4109 -6.7601,-1.2897 -2.1157,-0.8787 -4.0231,-2.2801 -5.428,-4.0899 -1.7254,-2.2228 -2.6458,-4.973 -3.1779,-7.7362 -1.1168,-9.572 1.4405,-18.2234 0.7958,-27.185 -0.2272,-3.0861 -0.6849,-6.1741 -1.6697,-9.1076 -0.9848,-2.9335 -2.5158,-5.7174 -4.696,-7.9133 -1.5893,-1.6035 -3.512,-2.8728 -5.603,-3.7239 -2.9409,-1.197 -6.2184,-1.5539 -9.347,-1.0122 -3.4311,0.594 -6.6669,2.2727 -9.1284,4.7361 z"
         id="path967"
         sodipodi:nodetypes="cccccccccsccccccccccc" />
      <path
         id="path969"
         d="m 451.15371,1424.1514 c 0.59866,-0.071 1.19679,-0.1457 1.80091,-0.1492 2.36041,-0.014 4.78103,0.4216 6.97157,1.3314 2.19838,0.913 4.18229,2.3697 5.65001,4.2606 1.80152,2.3207 2.74131,5.1555 3.2828,7.9674 a 0.54556747,0.54556747 0 0 1 0.005,0.039 c 1.13227,9.7048 -1.42835,18.3763 -0.79275,27.2098 0.22507,3.0586 0.67803,6.1008 1.64216,8.9727 0.9636,2.8707 2.45802,5.5808 4.56577,7.7037 1.53544,1.5495 3.39955,2.7794 5.42345,3.6032 2.84503,1.1579 6.02149,1.5031 9.04739,0.9791 0.68367,-0.1183 1.35157,-0.3098 2.01494,-0.5151 -0.60094,0.072 -1.20129,0.1471 -1.80777,0.1505 -2.36036,0.014 -4.7822,-0.42 -6.97306,-1.3299 -2.1983,-0.9131 -4.18215,-2.3698 -5.64994,-4.2606 -1.80145,-2.3207 -2.74131,-5.1555 -3.28279,-7.9674 a 0.54556747,0.54556747 0 0 1 -0.005,-0.039 c -1.13238,-9.7048 1.42827,-18.3763 0.79268,-27.2098 -0.22517,-3.0587 -0.67791,-6.101 -1.64209,-8.9728 -0.96361,-2.8707 -2.45801,-5.5807 -4.56577,-7.7036 -1.53561,-1.5498 -3.39849,-2.7809 -5.42211,-3.6046 -2.84487,-1.1578 -6.02283,-1.5017 -9.04874,-0.9778 -0.68086,0.1179 -1.34599,0.3084 -2.00665,0.5123 z"
         style="fill:url(#radialGradient1021);fill-opacity:1;stroke:none;stroke-width:0.26458332px;stroke-linecap:butt;stroke-linejoin:miter;stroke-opacity:1"
         inkscape:connector-curvature="0" />
      <g
         id="g1053">
        <path
           inkscape:connector-curvature="0"
           style="fill:#50852c;fill-opacity:1;stroke:none;stroke-width:0.52916664;stroke-linecap:butt;stroke-linejoin:miter;stroke-miterlimit:4;stroke-dasharray:none;stroke-opacity:1;paint-order:markers stroke fill"
           d="m 521.27854,1531.5665 h 34.34668 v 0.5847 h -34.34668 z"
           id="path945" />
        <g
           id="text977"
           style="font-style:normal;font-variant:normal;font-weight:normal;font-stretch:normal;font-size:12.13761044px;line-height:1.25;font-family:'Trajan Pro';-inkscape-font-specification:'Trajan Pro';text-align:center;text-anchor:middle;opacity:1;fill:#50852c;fill-opacity:1;fill-rule:nonzero;stroke:none;stroke-width:1.83038759;stroke-linecap:round;stroke-linejoin:miter;stroke-miterlimit:4;stroke-dasharray:none;stroke-opacity:1;paint-order:stroke fill markers"
           aria-label="enterprises">
          <path
             inkscape:connector-curvature="0"
             id="path940"
             style="font-style:normal;font-variant:normal;font-weight:normal;font-stretch:normal;font-family:'Trajan Pro';-inkscape-font-specification:'Trajan Pro';letter-spacing:1.37115049;fill:#50852c;fill-opacity:1;stroke-width:1.83038759"
             d="m 427.05091,1532.7752 c 0,0.9953 0,1.8085 -0.0607,2.2334 -0.0486,0.3034 -0.0728,0.5097 -0.27917,0.5462 -0.0971,0.012 -0.23061,0.049 -0.32771,0.049 -0.0607,0 -0.085,0.049 -0.085,0.085 0,0.061 0.0607,0.085 0.16993,0.085 0.16993,0 0.41268,-0.012 0.61902,-0.024 0.23061,-0.012 0.43695,-0.012 0.46123,-0.012 0.15779,0 0.43695,0 0.88604,0.024 0.43696,0.012 1.05598,0.036 1.85706,0.036 0.41268,0 0.52192,0 0.59474,-0.267 0.0607,-0.2185 0.14565,-0.9225 0.14565,-0.9953 0,-0.073 -0.0121,-0.1578 -0.0728,-0.1578 -0.0607,0 -0.085,0.036 -0.10924,0.1578 -0.0607,0.4127 -0.20634,0.5947 -0.48551,0.7161 -0.27916,0.1093 -0.78894,0.1093 -1.06811,0.1093 -1.05597,0 -1.25017,-0.1336 -1.27445,-0.8254 -0.0121,-0.2063 0,-1.408 0,-1.76 v -0.8617 c 0,-0.036 0.0121,-0.073 0.0728,-0.073 0.18206,0 1.323,0.012 1.6143,0.049 0.41268,0.048 0.50978,0.1699 0.54619,0.3156 0.0486,0.1335 0.0486,0.2427 0.0486,0.3398 0,0.061 0.0243,0.097 0.0728,0.097 0.0728,0 0.0971,-0.1092 0.0971,-0.1942 0,-0.073 0.0243,-0.4612 0.0486,-0.6675 0.0243,-0.3399 0.085,-0.5098 0.085,-0.5705 0,-0.061 -0.0243,-0.085 -0.0607,-0.085 -0.0364,0 -0.085,0.061 -0.15779,0.1335 -0.10924,0.1093 -0.26703,0.1214 -0.52192,0.1457 -0.24275,0.024 -1.65071,0.024 -1.78423,0.024 -0.0607,0 -0.0607,-0.036 -0.0607,-0.1093 v -2.8038 c 0,-0.073 0.0121,-0.1092 0.0607,-0.1092 0.12138,0 1.35942,0.012 1.54148,0.036 0.5826,0.073 0.69184,0.1457 0.76467,0.3156 0.0485,0.1214 0.0607,0.2913 0.0607,0.3641 0,0.085 0.0243,0.1335 0.085,0.1335 0.0485,0 0.085,-0.061 0.0971,-0.1092 0.0243,-0.1214 0.0485,-0.5826 0.0607,-0.6797 0.0243,-0.2913 0.085,-0.4127 0.085,-0.4855 0,-0.049 -0.0121,-0.097 -0.0486,-0.097 -0.0485,0 -0.0971,0.036 -0.14565,0.048 -0.085,0.012 -0.27916,0.049 -0.4855,0.061 -0.24276,0.012 -2.47608,0 -2.5489,0 -0.0607,0 -0.75253,-0.024 -1.23804,-0.024 -0.12137,0 -0.16992,0.024 -0.16992,0.085 0,0.036 0.0486,0.085 0.085,0.085 0.0971,0 0.27916,0.012 0.36413,0.024 0.35199,0.049 0.41268,0.2185 0.43695,0.5705 0.0243,0.3277 0.0243,0.619 0.0243,2.2212 z" />
          <path
             inkscape:connector-curvature="0"
             id="path942"
             style="font-style:normal;font-variant:normal;font-weight:normal;font-stretch:normal;font-family:'Trajan Pro';-inkscape-font-specification:'Trajan Pro';letter-spacing:1.37115049;fill:#50852c;fill-opacity:1;stroke-width:1.83038759"
             d="m 435.43494,1529.4981 c 0.32772,0.3641 1.52934,1.6264 2.76737,2.9251 1.1288,1.1774 2.67028,2.6946 2.77952,2.7917 0.59474,0.5462 0.70398,0.6312 0.81322,0.6312 0.0728,0 0.085,-0.061 0.085,-0.7404 l 0.0243,-6.0446 c 0,-0.619 0.0243,-0.8253 0.37626,-0.8982 0.12138,-0.024 0.20634,-0.024 0.25489,-0.024 0.0728,0 0.12138,-0.061 0.12138,-0.097 0,-0.061 -0.085,-0.073 -0.1942,-0.073 -0.43696,0 -0.78895,0.024 -0.91032,0.024 -0.12138,0 -0.63116,-0.024 -1.11666,-0.024 -0.12138,0 -0.20634,0.012 -0.20634,0.073 0,0.036 0.0121,0.097 0.085,0.097 0.085,0 0.32771,0.012 0.52192,0.049 0.32771,0.061 0.3884,0.2913 0.40054,0.9589 l 0.10924,5.1706 c -0.32772,-0.3398 -1.46865,-1.5657 -2.52463,-2.6581 -1.65071,-1.6993 -3.20433,-3.35 -3.37425,-3.5199 -0.10924,-0.1093 -0.29131,-0.3156 -0.41268,-0.3156 -0.085,0 -0.14565,0.1092 -0.14565,0.5219 v 5.911 c 0,0.9346 -0.0364,1.2138 -0.30344,1.2866 -0.15779,0.049 -0.35199,0.061 -0.43696,0.061 -0.0485,0 -0.085,0.036 -0.085,0.085 0,0.073 0.0607,0.085 0.16993,0.085 0.4855,0 0.93459,-0.036 1.03169,-0.036 0.0971,0 0.52192,0.036 1.1288,0.036 0.12138,0 0.1942,-0.024 0.1942,-0.085 0,-0.049 -0.0364,-0.085 -0.085,-0.085 -0.0971,0 -0.33985,-0.012 -0.53406,-0.061 -0.2913,-0.073 -0.3884,-0.3277 -0.41267,-1.1773 z" />
          <path
             inkscape:connector-curvature="0"
             id="path944"
             style="font-style:normal;font-variant:normal;font-weight:normal;font-stretch:normal;font-family:'Trajan Pro';-inkscape-font-specification:'Trajan Pro';letter-spacing:1.37115049;fill:#50852c;fill-opacity:1;stroke-width:1.83038759"
             d="m 448.93137,1528.4421 1.33514,0.024 c 1.01956,0.024 1.25017,0.2549 1.28659,0.5705 l 0.0121,0.1092 c 0.0121,0.1456 0.0364,0.1821 0.085,0.1821 0.0486,0 0.0971,-0.049 0.0971,-0.1336 0,-0.1213 0.0364,-0.8617 0.0364,-1.1773 0,-0.061 0,-0.1214 -0.0485,-0.1214 -0.0486,0 -0.14565,0.024 -0.30344,0.049 -0.16992,0.024 -0.41268,0.048 -0.76467,0.048 h -4.02968 c -0.12138,0 -0.53406,-0.012 -0.8375,-0.048 -0.2913,-0.036 -0.40054,-0.1214 -0.47337,-0.1214 -0.0364,0 -0.0971,0.1335 -0.10923,0.1942 -0.0243,0.085 -0.23062,1.0074 -0.23062,1.1167 0,0.061 0.0485,0.085 0.0728,0.085 0.0485,0 0.085,-0.012 0.10923,-0.097 0.0364,-0.073 0.0486,-0.1456 0.16993,-0.3277 0.15779,-0.2427 0.41268,-0.3156 1.08025,-0.3277 l 1.54148,-0.024 v 4.3331 c 0,0.9953 0,1.8085 -0.0486,2.2334 -0.0364,0.3034 -0.0971,0.5097 -0.31557,0.5583 -0.0971,0.024 -0.21848,0.048 -0.31558,0.048 -0.0607,0 -0.085,0.037 -0.085,0.073 0,0.061 0.0486,0.085 0.16992,0.085 0.31558,0 1.05597,-0.036 1.10452,-0.036 0.0607,0 0.7404,0.036 1.323,0.036 0.12138,0 0.16993,-0.036 0.16993,-0.085 0,-0.036 -0.0121,-0.085 -0.085,-0.085 -0.0971,0 -0.33986,-0.024 -0.48551,-0.049 -0.32771,-0.049 -0.37626,-0.2428 -0.41268,-0.5462 -0.0485,-0.4249 -0.0485,-1.2381 -0.0485,-2.2334 z" />
          <path
             inkscape:connector-curvature="0"
             id="path946"
             style="font-style:normal;font-variant:normal;font-weight:normal;font-stretch:normal;font-family:'Trajan Pro';-inkscape-font-specification:'Trajan Pro';letter-spacing:1.37115049;fill:#50852c;fill-opacity:1;stroke-width:1.83038759"
             d="m 455.36846,1532.7752 c 0,0.9953 0,1.8085 -0.0607,2.2334 -0.0485,0.3034 -0.0728,0.5097 -0.27916,0.5462 -0.0971,0.012 -0.23062,0.049 -0.32772,0.049 -0.0607,0 -0.085,0.049 -0.085,0.085 0,0.061 0.0607,0.085 0.16992,0.085 0.16993,0 0.41268,-0.012 0.61902,-0.024 0.23062,-0.012 0.43696,-0.012 0.46123,-0.012 0.15779,0 0.43696,0 0.88605,0.024 0.43695,0.012 1.05597,0.036 1.85705,0.036 0.41268,0 0.52192,0 0.59475,-0.267 0.0607,-0.2185 0.14565,-0.9225 0.14565,-0.9953 0,-0.073 -0.0121,-0.1578 -0.0728,-0.1578 -0.0607,0 -0.085,0.036 -0.10924,0.1578 -0.0607,0.4127 -0.20634,0.5947 -0.4855,0.7161 -0.27917,0.1093 -0.78895,0.1093 -1.06811,0.1093 -1.05597,0 -1.25018,-0.1336 -1.27445,-0.8254 -0.0121,-0.2063 0,-1.408 0,-1.76 v -0.8617 c 0,-0.036 0.0121,-0.073 0.0728,-0.073 0.18207,0 1.323,0.012 1.61431,0.049 0.41268,0.048 0.50978,0.1699 0.54619,0.3156 0.0485,0.1335 0.0485,0.2427 0.0485,0.3398 0,0.061 0.0243,0.097 0.0728,0.097 0.0728,0 0.0971,-0.1092 0.0971,-0.1942 0,-0.073 0.0243,-0.4612 0.0485,-0.6675 0.0243,-0.3399 0.085,-0.5098 0.085,-0.5705 0,-0.061 -0.0243,-0.085 -0.0607,-0.085 -0.0364,0 -0.085,0.061 -0.15779,0.1335 -0.10924,0.1093 -0.26702,0.1214 -0.52191,0.1457 -0.24276,0.024 -1.65072,0.024 -1.78423,0.024 -0.0607,0 -0.0607,-0.036 -0.0607,-0.1093 v -2.8038 c 0,-0.073 0.0121,-0.1092 0.0607,-0.1092 0.12137,0 1.35941,0.012 1.54147,0.036 0.58261,0.073 0.69185,0.1457 0.76467,0.3156 0.0485,0.1214 0.0607,0.2913 0.0607,0.3641 0,0.085 0.0243,0.1335 0.085,0.1335 0.0486,0 0.085,-0.061 0.0971,-0.1092 0.0243,-0.1214 0.0486,-0.5826 0.0607,-0.6797 0.0243,-0.2913 0.085,-0.4127 0.085,-0.4855 0,-0.049 -0.0121,-0.097 -0.0486,-0.097 -0.0485,0 -0.0971,0.036 -0.14566,0.048 -0.085,0.012 -0.27916,0.049 -0.4855,0.061 -0.24275,0.012 -2.47607,0 -2.5489,0 -0.0607,0 -0.75253,-0.024 -1.23803,-0.024 -0.12138,0 -0.16993,0.024 -0.16993,0.085 0,0.036 0.0485,0.085 0.085,0.085 0.0971,0 0.27917,0.012 0.36413,0.024 0.35199,0.049 0.41268,0.2185 0.43696,0.5705 0.0243,0.3277 0.0243,0.619 0.0243,2.2212 z" />
          <path
             inkscape:connector-curvature="0"
             id="path948"
             style="font-style:normal;font-variant:normal;font-weight:normal;font-stretch:normal;font-family:'Trajan Pro';-inkscape-font-specification:'Trajan Pro';letter-spacing:1.37115049;fill:#50852c;fill-opacity:1;stroke-width:1.83038759"
             d="m 463.42478,1532.7752 c 0,0.9953 0,1.8085 -0.0607,2.2334 -0.0485,0.3034 -0.0728,0.4976 -0.27917,0.5462 -0.0971,0.024 -0.23061,0.049 -0.32771,0.049 -0.0607,0 -0.085,0.049 -0.085,0.085 0,0.061 0.0607,0.085 0.16993,0.085 0.32772,0 1.04384,-0.036 1.05597,-0.036 0.0485,0 0.72826,0.036 1.31087,0.036 0.12137,0 0.16992,-0.036 0.16992,-0.085 0,-0.036 -0.0121,-0.085 -0.085,-0.085 -0.0971,0 -0.32772,-0.024 -0.47337,-0.049 -0.32771,-0.049 -0.3884,-0.2428 -0.42481,-0.5462 -0.0485,-0.4249 -0.0485,-1.2259 -0.0485,-2.2212 v -0.2428 c 0,-0.061 0.0243,-0.085 0.0728,-0.085 l 1.35941,0.024 c 0.0728,0 0.0971,0.012 0.14565,0.061 0.23062,0.2792 0.70399,0.9468 1.15308,1.5051 0.60688,0.7768 0.99528,1.2744 1.45651,1.5172 0.26703,0.1456 0.53406,0.2063 1.14094,0.2063 h 0.66756 c 0.19421,0 0.25489,-0.024 0.25489,-0.085 0,-0.036 -0.0364,-0.085 -0.0971,-0.085 -0.0607,0 -0.16992,0 -0.37626,-0.036 -0.26703,-0.036 -0.61902,-0.1335 -1.18949,-0.7161 -0.61902,-0.6433 -1.35941,-1.5779 -2.23332,-2.6703 0.99529,-0.8496 1.31086,-1.59 1.31086,-2.3547 0,-0.7161 -0.47336,-1.2138 -0.74039,-1.408 -0.55833,-0.3884 -1.31086,-0.4491 -1.99057,-0.4491 -0.32771,0 -1.2259,0.024 -1.33514,0.024 -0.0607,0 -0.7768,-0.024 -1.26231,-0.024 -0.12137,0 -0.16992,0.024 -0.16992,0.085 0,0.036 0.0486,0.085 0.085,0.085 0.0971,0 0.27916,0.012 0.36413,0.024 0.35199,0.049 0.41268,0.2185 0.43695,0.5705 0.0243,0.3277 0.0243,0.619 0.0243,2.2212 z m 0.92246,-4.2603 c 0,-0.061 0.0364,-0.097 0.085,-0.1213 0.10924,-0.024 0.44909,-0.061 0.76467,-0.061 1.14093,0 1.84491,0.7404 1.84491,2.027 0,0.7889 -0.27916,1.3351 -0.64329,1.5778 -0.25489,0.17 -0.54619,0.1821 -0.80108,0.1821 -0.47337,0 -1.01956,-0.073 -1.17735,-0.1578 -0.0485,-0.036 -0.0728,-0.073 -0.0728,-0.1335 z" />
          <path
             inkscape:connector-curvature="0"
             id="path950"
             style="font-style:normal;font-variant:normal;font-weight:normal;font-stretch:normal;font-family:'Trajan Pro';-inkscape-font-specification:'Trajan Pro';letter-spacing:1.37115049;fill:#50852c;fill-opacity:1;stroke-width:1.83038759"
             d="m 472.95088,1532.7752 c 0,0.9953 0,1.8085 -0.0607,2.2334 -0.0485,0.3034 -0.0728,0.4976 -0.27917,0.5462 -0.0971,0.024 -0.23061,0.049 -0.32771,0.049 -0.0607,0 -0.085,0.049 -0.085,0.085 0,0.061 0.0607,0.085 0.16993,0.085 0.32771,0 1.01956,-0.036 1.05597,-0.036 0.0486,0 0.75253,0.036 1.33514,0.036 0.12137,0 0.16992,-0.036 0.16992,-0.085 0,-0.036 -0.0243,-0.085 -0.085,-0.085 -0.0971,0 -0.32771,-0.024 -0.47337,-0.049 -0.32771,-0.049 -0.3884,-0.2428 -0.42481,-0.5462 -0.0485,-0.4249 -0.0485,-1.2381 -0.0485,-2.2334 v -4.1996 c 0,-0.1092 0.0243,-0.182 0.085,-0.1942 0.10924,-0.024 0.41268,-0.073 0.59474,-0.073 0.24276,0 0.88605,-0.061 1.44438,0.4976 0.57047,0.5584 0.60688,1.2259 0.60688,1.5658 0,0.9346 -0.82536,1.6628 -1.97843,1.6628 -0.21848,0 -0.27917,0.024 -0.27917,0.1093 0,0.049 0.0607,0.097 0.10924,0.097 0.0607,0.012 0.24276,0.012 0.30344,0.012 1.63858,0 2.75524,-0.9831 2.75524,-2.4639 0,-0.5583 -0.2913,-1.0196 -0.53405,-1.238 -0.18207,-0.1578 -0.66757,-0.5827 -2.03912,-0.5827 -0.48551,0 -1.28659,0.024 -1.5172,0.024 -0.085,0 -0.75254,-0.024 -1.23804,-0.024 -0.12138,0 -0.16993,0.024 -0.16993,0.085 0,0.036 0.0485,0.085 0.085,0.085 0.0971,0 0.27916,0.012 0.36413,0.024 0.35199,0.049 0.41267,0.2185 0.43695,0.5705 0.0243,0.3277 0.0243,0.619 0.0243,2.2212 z" />
          <path
             inkscape:connector-curvature="0"
             id="path952"
             style="font-style:normal;font-variant:normal;font-weight:normal;font-stretch:normal;font-family:'Trajan Pro';-inkscape-font-specification:'Trajan Pro';letter-spacing:1.37115049;fill:#50852c;fill-opacity:1;stroke-width:1.83038759"
             d="m 481.26797,1532.7752 c 0,0.9953 0,1.8085 -0.0607,2.2334 -0.0485,0.3034 -0.0728,0.4976 -0.27917,0.5462 -0.0971,0.024 -0.23061,0.049 -0.32772,0.049 -0.0607,0 -0.085,0.049 -0.085,0.085 0,0.061 0.0607,0.085 0.16993,0.085 0.32771,0 1.04383,-0.036 1.05597,-0.036 0.0486,0 0.72826,0.036 1.31086,0.036 0.12138,0 0.16993,-0.036 0.16993,-0.085 0,-0.036 -0.0121,-0.085 -0.085,-0.085 -0.0971,0 -0.32772,-0.024 -0.47337,-0.049 -0.32772,-0.049 -0.3884,-0.2428 -0.42482,-0.5462 -0.0486,-0.4249 -0.0486,-1.2259 -0.0486,-2.2212 v -0.2428 c 0,-0.061 0.0243,-0.085 0.0728,-0.085 l 1.35941,0.024 c 0.0728,0 0.0971,0.012 0.14565,0.061 0.23062,0.2792 0.70398,0.9468 1.15307,1.5051 0.60688,0.7768 0.99529,1.2744 1.45652,1.5172 0.26702,0.1456 0.53405,0.2063 1.14093,0.2063 h 0.66757 c 0.1942,0 0.25489,-0.024 0.25489,-0.085 0,-0.036 -0.0364,-0.085 -0.0971,-0.085 -0.0607,0 -0.16993,0 -0.37627,-0.036 -0.26702,-0.036 -0.61901,-0.1335 -1.18948,-0.7161 -0.61902,-0.6433 -1.35941,-1.5779 -2.23332,-2.6703 0.99528,-0.8496 1.31086,-1.59 1.31086,-2.3547 0,-0.7161 -0.47337,-1.2138 -0.74039,-1.408 -0.55833,-0.3884 -1.31087,-0.4491 -1.99057,-0.4491 -0.32772,0 -1.2259,0.024 -1.33514,0.024 -0.0607,0 -0.77681,-0.024 -1.26231,-0.024 -0.12138,0 -0.16993,0.024 -0.16993,0.085 0,0.036 0.0486,0.085 0.085,0.085 0.0971,0 0.27916,0.012 0.36412,0.024 0.352,0.049 0.41268,0.2185 0.43696,0.5705 0.0243,0.3277 0.0243,0.619 0.0243,2.2212 z m 0.92246,-4.2603 c 0,-0.061 0.0364,-0.097 0.085,-0.1213 0.10923,-0.024 0.44909,-0.061 0.76466,-0.061 1.14094,0 1.84492,0.7404 1.84492,2.027 0,0.7889 -0.27916,1.3351 -0.64329,1.5778 -0.25489,0.17 -0.54619,0.1821 -0.80108,0.1821 -0.47337,0 -1.01956,-0.073 -1.17735,-0.1578 -0.0485,-0.036 -0.0728,-0.073 -0.0728,-0.1335 z" />
          <path
             inkscape:connector-curvature="0"
             id="path954"
             style="font-style:normal;font-variant:normal;font-weight:normal;font-stretch:normal;font-family:'Trajan Pro';-inkscape-font-specification:'Trajan Pro';letter-spacing:1.37115049;fill:#50852c;fill-opacity:1;stroke-width:1.83038759"
             d="m 491.76509,1530.9546 c 0,-1.6022 0,-1.8935 0.0121,-2.2212 0.0243,-0.3641 0.085,-0.5098 0.37626,-0.5705 0.12138,-0.024 0.19421,-0.024 0.26703,-0.024 0.0364,0 0.085,-0.049 0.085,-0.085 0,-0.061 -0.0485,-0.085 -0.16992,-0.085 -0.32772,0 -1.01956,0.024 -1.06811,0.024 -0.0607,0 -0.72826,-0.024 -1.08025,-0.024 -0.12138,0 -0.16993,0.024 -0.16993,0.085 0,0.036 0.0364,0.085 0.085,0.085 0.0728,0 0.20634,0.012 0.32771,0.036 0.23062,0.049 0.31558,0.2063 0.33986,0.5583 0.0243,0.3277 0.0243,0.619 0.0243,2.2212 v 1.8206 c 0,0.9953 -0.0121,1.8085 -0.0607,2.2334 -0.0364,0.3034 -0.0728,0.4976 -0.27916,0.5462 -0.0971,0.024 -0.23062,0.049 -0.32772,0.049 -0.0607,0 -0.085,0.049 -0.085,0.085 0,0.061 0.0607,0.085 0.16993,0.085 0.32771,0 0.99528,-0.036 1.05597,-0.036 0.0485,0 0.74039,0.036 1.33514,0.036 0.12137,0 0.16992,-0.036 0.16992,-0.085 0,-0.036 -0.0243,-0.085 -0.085,-0.085 -0.0971,0 -0.32772,-0.024 -0.48551,-0.049 -0.31557,-0.049 -0.35199,-0.2428 -0.3884,-0.5462 -0.0486,-0.4249 -0.0486,-1.2381 -0.0486,-2.2334 z" />
          <path
             inkscape:connector-curvature="0"
             id="path956"
             style="font-style:normal;font-variant:normal;font-weight:normal;font-stretch:normal;font-family:'Trajan Pro';-inkscape-font-specification:'Trajan Pro';letter-spacing:1.37115049;fill:#50852c;fill-opacity:1;stroke-width:1.83038759"
             d="m 497.53821,1535.9067 c 0.5826,0 1.25017,-0.073 1.69926,-0.3641 0.76467,-0.4976 0.99529,-1.1531 0.99529,-1.7599 0,-0.8861 -0.44909,-1.6022 -1.74782,-2.4882 l -0.30344,-0.2064 c -1.05597,-0.7161 -1.38369,-1.0924 -1.38369,-1.7478 0,-0.7283 0.6433,-1.1167 1.4201,-1.1167 0.95888,0 1.31087,0.3884 1.38369,0.5098 0.0607,0.1093 0.14565,0.3884 0.15779,0.5098 0.0121,0.085 0.0243,0.1335 0.0971,0.1335 0.0728,0 0.085,-0.073 0.085,-0.2306 0,-0.704 0.0486,-1.0438 0.0486,-1.0924 0,-0.061 -0.0243,-0.073 -0.10924,-0.073 -0.085,0 -0.16993,0 -0.37627,-0.049 -0.25489,-0.061 -0.67971,-0.1213 -1.10452,-0.1213 -1.40796,0 -2.36684,0.7282 -2.36684,1.942 0,0.7161 0.37627,1.3472 1.52934,2.209 l 0.48551,0.3641 c 0.94673,0.704 1.34727,1.056 1.34727,1.7964 0,0.7768 -0.54619,1.3716 -1.60216,1.3716 -0.71612,0 -1.5172,-0.2671 -1.68713,-1.0196 -0.0364,-0.1456 -0.0364,-0.2913 -0.0364,-0.3763 0,-0.085 -0.0364,-0.1213 -0.0971,-0.1213 -0.0607,0 -0.085,0.061 -0.085,0.1699 -0.0121,0.1699 -0.0607,0.5826 -0.0607,1.0924 0,0.2791 0.0121,0.3156 0.15779,0.3884 0.43696,0.2063 1.05598,0.2791 1.55362,0.2791 z" />
          <path
             inkscape:connector-curvature="0"
             id="path958"
             style="font-style:normal;font-variant:normal;font-weight:normal;font-stretch:normal;font-family:'Trajan Pro';-inkscape-font-specification:'Trajan Pro';letter-spacing:1.37115049;fill:#50852c;fill-opacity:1;stroke-width:1.83038759"
             d="m 504.37015,1532.7752 c 0,0.9953 0,1.8085 -0.0607,2.2334 -0.0485,0.3034 -0.0728,0.5097 -0.27916,0.5462 -0.0971,0.012 -0.23062,0.049 -0.32772,0.049 -0.0607,0 -0.085,0.049 -0.085,0.085 0,0.061 0.0607,0.085 0.16992,0.085 0.16993,0 0.41268,-0.012 0.61902,-0.024 0.23062,-0.012 0.43696,-0.012 0.46123,-0.012 0.15779,0 0.43696,0 0.88605,0.024 0.43695,0.012 1.05597,0.036 1.85705,0.036 0.41268,0 0.52192,0 0.59475,-0.267 0.0607,-0.2185 0.14565,-0.9225 0.14565,-0.9953 0,-0.073 -0.0121,-0.1578 -0.0728,-0.1578 -0.0607,0 -0.085,0.036 -0.10924,0.1578 -0.0607,0.4127 -0.20634,0.5947 -0.4855,0.7161 -0.27917,0.1093 -0.78895,0.1093 -1.06811,0.1093 -1.05597,0 -1.25018,-0.1336 -1.27445,-0.8254 -0.0121,-0.2063 0,-1.408 0,-1.76 v -0.8617 c 0,-0.036 0.0121,-0.073 0.0728,-0.073 0.18207,0 1.323,0.012 1.61431,0.049 0.41268,0.048 0.50978,0.1699 0.54619,0.3156 0.0486,0.1335 0.0486,0.2427 0.0486,0.3398 0,0.061 0.0243,0.097 0.0728,0.097 0.0728,0 0.0971,-0.1092 0.0971,-0.1942 0,-0.073 0.0243,-0.4612 0.0486,-0.6675 0.0243,-0.3399 0.085,-0.5098 0.085,-0.5705 0,-0.061 -0.0243,-0.085 -0.0607,-0.085 -0.0364,0 -0.085,0.061 -0.15779,0.1335 -0.10924,0.1093 -0.26702,0.1214 -0.52191,0.1457 -0.24276,0.024 -1.65072,0.024 -1.78423,0.024 -0.0607,0 -0.0607,-0.036 -0.0607,-0.1093 v -2.8038 c 0,-0.073 0.0121,-0.1092 0.0607,-0.1092 0.12137,0 1.35941,0.012 1.54147,0.036 0.58261,0.073 0.69185,0.1457 0.76467,0.3156 0.0485,0.1214 0.0607,0.2913 0.0607,0.3641 0,0.085 0.0243,0.1335 0.085,0.1335 0.0486,0 0.085,-0.061 0.0971,-0.1092 0.0243,-0.1214 0.0485,-0.5826 0.0607,-0.6797 0.0243,-0.2913 0.085,-0.4127 0.085,-0.4855 0,-0.049 -0.0121,-0.097 -0.0486,-0.097 -0.0485,0 -0.0971,0.036 -0.14566,0.048 -0.085,0.012 -0.27916,0.049 -0.4855,0.061 -0.24275,0.012 -2.47607,0 -2.5489,0 -0.0607,0 -0.75253,-0.024 -1.23803,-0.024 -0.12138,0 -0.16993,0.024 -0.16993,0.085 0,0.036 0.0485,0.085 0.085,0.085 0.0971,0 0.27917,0.012 0.36413,0.024 0.35199,0.049 0.41268,0.2185 0.43695,0.5705 0.0243,0.3277 0.0243,0.619 0.0243,2.2212 z" />
          <path
             inkscape:connector-curvature="0"
             id="path960"
             style="font-style:normal;font-variant:normal;font-weight:normal;font-stretch:normal;font-family:'Trajan Pro';-inkscape-font-specification:'Trajan Pro';letter-spacing:1.37115049;fill:#50852c;fill-opacity:1;stroke-width:1.83038759"
             d="m 513.08189,1535.9067 c 0.58261,0 1.25018,-0.073 1.69927,-0.3641 0.76467,-0.4976 0.99528,-1.1531 0.99528,-1.7599 0,-0.8861 -0.44909,-1.6022 -1.74781,-2.4882 l -0.30344,-0.2064 c -1.05598,-0.7161 -1.38369,-1.0924 -1.38369,-1.7478 0,-0.7283 0.64329,-1.1167 1.4201,-1.1167 0.95887,0 1.31086,0.3884 1.38369,0.5098 0.0607,0.1093 0.14565,0.3884 0.15779,0.5098 0.0121,0.085 0.0243,0.1335 0.0971,0.1335 0.0728,0 0.085,-0.073 0.085,-0.2306 0,-0.704 0.0485,-1.0438 0.0485,-1.0924 0,-0.061 -0.0243,-0.073 -0.10924,-0.073 -0.085,0 -0.16992,0 -0.37626,-0.049 -0.25489,-0.061 -0.67971,-0.1213 -1.10453,-0.1213 -1.40796,0 -2.36683,0.7282 -2.36683,1.942 0,0.7161 0.37627,1.3472 1.52934,2.209 l 0.4855,0.3641 c 0.94674,0.704 1.34728,1.056 1.34728,1.7964 0,0.7768 -0.54619,1.3716 -1.60217,1.3716 -0.71612,0 -1.5172,-0.2671 -1.68712,-1.0196 -0.0364,-0.1456 -0.0364,-0.2913 -0.0364,-0.3763 0,-0.085 -0.0364,-0.1213 -0.0971,-0.1213 -0.0607,0 -0.085,0.061 -0.085,0.1699 -0.0121,0.1699 -0.0607,0.5826 -0.0607,1.0924 0,0.2791 0.0121,0.3156 0.15779,0.3884 0.43695,0.2063 1.05597,0.2791 1.55361,0.2791 z" />
        </g>
        <path
           id="path1043"
           d="m 386.29112,1531.5665 h 34.34668 v 0.5847 h -34.34668 z"
           style="fill:#50852c;fill-opacity:1;stroke:none;stroke-width:0.52916664;stroke-linecap:butt;stroke-linejoin:miter;stroke-miterlimit:4;stroke-dasharray:none;stroke-opacity:1;paint-order:markers stroke fill"
           inkscape:connector-curvature="0" />
      </g>
    </g>
  </g>
</svg>
